<svg viewBox="0 0 111.941 42.3149" xmlns="http://www.w3.org/2000/svg" xmlns:xlink="http://www.w3.org/1999/xlink" width="111.941406" height="42.314941" fill="none" customFrame="#000000">
	<g id="Logo">
		<g id="Logo">
			<g id="Logo">
				<rect id="Back" width="42.267368" height="37.336658" x="3.673828" y="4.978027" rx="6.969510" fill="rgb(108,95,188)" />
				<rect id="Front" width="42.267368" height="37.336658" x="0.000000" y="0.000000" rx="6.969510" fill="rgb(219,217,238)" />
				<rect id="Front" width="40.252373" height="35.321663" x="1.007497" y="1.007497" rx="5.962012" stroke="rgb(108,95,188)" stroke-width="2.01499414" />
				<g id="Fork &amp; Knife">
					<path id="Vector" transform="matrix(-0.0030637,0.999995,-0.99999,-0.00442162,36.0674,0.497559)" />
					<g id="Fork">
						<path id="Vector" d="M0 0L22.9018 0" stroke="rgb(108,95,188)" stroke-linecap="round" stroke-linejoin="round" stroke-width="2.08431983" transform="matrix(-0.99999,-0.00442162,0.0030637,-0.999995,32.624,12.0508)" />
						<path id="Vector" d="M9.17099 0L9.17099 5.09343C9.17099 7.2002 7.11645 8.9104 4.5855 8.9104C2.05454 8.9104 0 7.2002 0 5.09343L0 0" fill-rule="nonzero" stroke="rgb(108,95,188)" stroke-linecap="round" stroke-linejoin="round" stroke-width="2.08431983" transform="matrix(-0.0030637,0.999995,-0.99999,-0.00442162,32.6377,7.46533)" />
					</g>
					<g id="Knife">
						<path id="Vector" d="M4.1833 6.65458C4.1833 7.19984 3.64736 7.65834 2.99232 7.67074L1.2654 7.72031C0.580587 7.7327 0 7.27419 0 6.70415L0.0446598 0.123924L4.22796 0L4.1833 6.65458Z" fill-rule="nonzero" stroke="rgb(108,95,188)" stroke-linecap="round" stroke-linejoin="round" stroke-width="2.08431983" transform="matrix(-0.0030637,0.999995,-0.99999,-0.00442162,17.374,22.4941)" />
						<path id="Vector" d="M6.56558 14.1427C6.56558 14.688 6.02963 15.1465 5.37456 15.1589L0 15.2952L0.119084 0.0149476L0.80394 0.00255688C4.04952 -0.0841925 6.6698 2.04736 6.64002 4.7366L6.56558 14.1427Z" fill-rule="nonzero" stroke="rgb(108,95,188)" stroke-linecap="round" stroke-linejoin="round" stroke-width="2.08431983" transform="matrix(-0.0030637,0.999995,-0.99999,-0.00442162,32.5703,22.5913)" />
					</g>
				</g>
			</g>
		</g>
		<g id="Group 34408">
			<path id="eatly" d="M69.3081 22.0569C69.3081 22.4804 69.2798 22.8615 69.2234 23.2004L60.6472 23.2004C60.7178 24.0474 61.0142 24.7109 61.5366 25.1909C62.0589 25.6709 62.7012 25.9109 63.4636 25.9109C64.5647 25.9109 65.3482 25.4379 65.8141 24.4921L69.0116 24.4921C68.6728 25.6215 68.0234 26.5532 67.0634 27.2873C66.1035 28.0073 64.9247 28.3672 63.5271 28.3672C62.3977 28.3672 61.3813 28.1202 60.4778 27.6261C59.5884 27.1179 58.8896 26.405 58.3814 25.4873C57.8873 24.5697 57.6402 23.5109 57.6402 22.311C57.6402 21.0969 57.8873 20.031 58.3814 19.1134C58.8755 18.1958 59.5672 17.4899 60.4566 16.9958C61.346 16.5017 62.3695 16.2547 63.5271 16.2547C64.6423 16.2547 65.6376 16.4947 66.5129 16.9747C67.4022 17.4547 68.0869 18.1393 68.5669 19.0287C69.061 19.904 69.3081 20.9134 69.3081 22.0569ZM66.2376 21.2098C66.2235 20.4475 65.9482 19.8405 65.4117 19.3887C64.8753 18.9228 64.2188 18.6899 63.4424 18.6899C62.7083 18.6899 62.0871 18.9158 61.5789 19.3675C61.0848 19.8052 60.7813 20.4193 60.6683 21.2098L66.2376 21.2098ZM70.7096 22.2686C70.7096 21.0828 70.9426 20.031 71.4084 19.1134C71.8884 18.1958 72.5308 17.4899 73.3354 16.9958C74.1542 16.5017 75.0648 16.2547 76.0671 16.2547C76.9424 16.2547 77.7047 16.4312 78.3541 16.7841C79.0176 17.137 79.547 17.5817 79.9423 18.1182L79.9423 16.4453L82.9281 16.4453L82.9281 28.1767L79.9423 28.1767L79.9423 26.4614C79.5611 27.012 79.0317 27.4708 78.3541 27.8379C77.6906 28.1908 76.9212 28.3672 76.0459 28.3672C75.0577 28.3672 74.1542 28.1131 73.3354 27.6049C72.5308 27.0967 71.8884 26.3838 71.4084 25.4662C70.9426 24.5344 70.7096 23.4686 70.7096 22.2686ZM79.9423 22.311C79.9423 21.591 79.8011 20.9769 79.5188 20.4687C79.2364 19.9463 78.8553 19.5511 78.3753 19.2828C77.8953 19.0005 77.38 18.8593 76.8294 18.8593C76.2789 18.8593 75.7707 18.9934 75.3048 19.2617C74.8389 19.5299 74.4578 19.9252 74.1613 20.4475C73.879 20.9557 73.7378 21.5628 73.7378 22.2686C73.7378 22.9745 73.879 23.5956 74.1613 24.1321C74.4578 24.6544 74.8389 25.0568 75.3048 25.3391C75.7848 25.6215 76.293 25.7626 76.8294 25.7626C77.38 25.7626 77.8953 25.6285 78.3753 25.3603C78.8553 25.0779 79.2364 24.6827 79.5188 24.1744C79.8011 23.6521 79.9423 23.0309 79.9423 22.311ZM89.2752 18.8805L89.2752 24.5556C89.2752 24.9509 89.3669 25.2403 89.5505 25.4238C89.7481 25.5932 90.0728 25.6779 90.5246 25.6779L91.901 25.6779L91.901 28.1767L90.0375 28.1767C87.5388 28.1767 86.2894 26.9626 86.2894 24.5344L86.2894 18.8805L84.8918 18.8805L84.8918 16.4453L86.2894 16.4453L86.2894 13.5442L89.2752 13.5442L89.2752 16.4453L91.901 16.4453L91.901 18.8805L89.2752 18.8805ZM96.9979 12.5066L96.9979 28.1767L94.0333 28.1767L94.0333 12.5066L96.9979 12.5066ZM111.15 16.4453L103.887 33.7247L100.732 33.7247L103.273 27.8802L98.5717 16.4453L101.896 16.4453L104.924 24.6403L107.995 16.4453L111.15 16.4453Z" fill="rgb(108,95,188)" fill-rule="nonzero" />
		</g>
	</g>
</svg>
