<svg viewBox="0 0 45.9414 42.3154" xmlns="http://www.w3.org/2000/svg" xmlns:xlink="http://www.w3.org/1999/xlink" width="45.941406" height="42.315430" fill="none" customFrame="#000000">
	<g id="Logo">
		<g id="Logo">
			<rect id="Back" width="42.267368" height="37.336658" x="3.673828" y="4.978516" rx="6.969510" fill="rgb(108,95,188)" />
			<rect id="Front" width="42.267368" height="37.336658" x="0.000000" y="0.000000" rx="6.969510" fill="rgb(219,217,238)" />
			<rect id="Front" width="40.252373" height="35.321663" x="1.007497" y="1.007497" rx="5.962012" stroke="rgb(108,95,188)" stroke-width="2.01499414" />
			<g id="Fork &amp; Knife">
				<path id="Vector" transform="matrix(-0.0030637,0.999995,-0.99999,-0.00442162,36.0674,0.498047)" />
				<g id="Fork">
					<path id="Vector" d="M0 0L22.9018 0" stroke="rgb(108,95,188)" stroke-linecap="round" stroke-linejoin="round" stroke-width="2.08431983" transform="matrix(-0.99999,-0.00442162,0.0030637,-0.999995,32.624,12.0508)" />
					<path id="Vector" d="M9.17099 0L9.17099 5.09343C9.17099 7.2002 7.11645 8.9104 4.5855 8.9104C2.05454 8.9104 0 7.2002 0 5.09343L0 0" fill-rule="nonzero" stroke="rgb(108,95,188)" stroke-linecap="round" stroke-linejoin="round" stroke-width="2.08431983" transform="matrix(-0.0030637,0.999995,-0.99999,-0.00442162,32.6377,7.46484)" />
				</g>
				<g id="Knife">
					<path id="Vector" d="M4.1833 6.65458C4.1833 7.19984 3.64736 7.65834 2.99232 7.67074L1.2654 7.72031C0.580587 7.7327 0 7.27419 0 6.70415L0.0446598 0.123924L4.22796 0L4.1833 6.65458Z" fill-rule="nonzero" stroke="rgb(108,95,188)" stroke-linecap="round" stroke-linejoin="round" stroke-width="2.08431983" transform="matrix(-0.0030637,0.999995,-0.99999,-0.00442162,17.374,22.4941)" />
					<path id="Vector" d="M6.56558 14.1427C6.56558 14.688 6.02963 15.1465 5.37456 15.1589L0 15.2952L0.119084 0.0149476L0.80394 0.00255688C4.04952 -0.0841925 6.6698 2.04736 6.64002 4.7366L6.56558 14.1427Z" fill-rule="nonzero" stroke="rgb(108,95,188)" stroke-linecap="round" stroke-linejoin="round" stroke-width="2.08431983" transform="matrix(-0.0030637,0.999995,-0.99999,-0.00442162,32.5703,22.5908)" />
				</g>
			</g>
		</g>
	</g>
</svg>
