<svg width="33" height="112" viewBox="0 0 33 112" fill="none" xmlns="http://www.w3.org/2000/svg">
<path d="M14.1376 111.738C14.5253 112.02 15.0677 111.934 15.3491 111.546C15.6305 111.158 15.5442 110.616 15.1565 110.334L14.1376 111.738ZM1.12254 83.9266L0.265708 83.7914L1.12254 83.9266ZM22.6799 63.8754L22.4194 64.7028L22.6799 63.8754ZM29.1745 74.0729L28.3328 73.8635L29.1745 74.0729ZM20.1893 79.7587L20.1601 78.8918L20.1893 79.7587ZM4.9909 51.9132L4.14128 51.7383L4.9909 51.9132ZM26.2591 34.1779L26.0396 35.0172L26.2591 34.1779ZM31.3737 41.6892L30.508 41.6337L31.3737 41.6892ZM8.39676 16.519L9.19824 16.8508L8.39676 16.519ZM26.9124 0.867584L27.6556 1.31489C27.8188 1.04374 27.8214 0.705229 27.6623 0.431631C27.5033 0.158033 27.2079 -0.00723765 26.8915 0.000405964L26.9124 0.867584ZM22.0442 7.27404C21.7972 7.6845 21.9297 8.2175 22.3402 8.46454C22.7506 8.71158 23.2836 8.5791 23.5307 8.16864L22.0442 7.27404ZM18.4939 0.203236C18.015 0.214804 17.6361 0.612427 17.6476 1.09136C17.6592 1.57028 18.0568 1.94915 18.5358 1.93758L18.4939 0.203236ZM14.647 111.036C15.1565 110.334 15.1567 110.334 15.1568 110.335C15.1568 110.335 15.1568 110.335 15.1567 110.335C15.1566 110.334 15.1562 110.334 15.1555 110.334C15.1543 110.333 15.152 110.331 15.1489 110.329C15.1425 110.324 15.1324 110.317 15.1187 110.306C15.0913 110.286 15.0493 110.255 14.994 110.212C14.8832 110.128 14.7188 110.001 14.509 109.832C14.0892 109.495 13.4886 108.993 12.7736 108.342C11.3423 107.038 9.46064 105.142 7.65649 102.775C4.03549 98.0244 0.808054 91.4857 1.97937 84.0618L0.265708 83.7914C-1.01147 91.8863 2.52335 98.9024 6.27672 103.827C8.15975 106.297 10.1183 108.27 11.6054 109.624C12.3497 110.302 12.9778 110.827 13.422 111.184C13.6442 111.363 13.8205 111.499 13.9425 111.592C14.0036 111.639 14.051 111.675 14.0839 111.699C14.1003 111.711 14.1131 111.721 14.1221 111.727C14.1266 111.73 14.1301 111.733 14.1327 111.735C14.134 111.736 14.1351 111.737 14.1359 111.737C14.1363 111.738 14.1367 111.738 14.1369 111.738C14.1373 111.738 14.1376 111.738 14.647 111.036ZM1.97937 84.0618C2.89411 78.264 5.82562 72.675 9.65765 68.9161C13.4995 65.1476 18.0971 63.3419 22.4194 64.7028L22.9404 63.0481C17.7736 61.4212 12.5358 63.6628 8.4428 67.6776C4.34004 71.7021 1.23742 77.6326 0.265708 83.7914L1.97937 84.0618ZM22.4194 64.7028C23.6861 65.1017 25.4869 66.2624 26.8105 67.9353C28.1216 69.5924 28.8851 71.6434 28.3328 73.8635L30.0163 74.2824C30.7372 71.385 29.7015 68.7932 28.171 66.8589C26.6531 64.9404 24.5699 63.5611 22.9404 63.0481L22.4194 64.7028ZM28.3328 73.8635C27.8104 75.9628 26.5238 77.1706 24.995 77.89C23.432 78.6255 21.6223 78.8425 20.1601 78.8918L20.2185 80.6257C21.7684 80.5735 23.8552 80.3437 25.7337 79.4598C27.6464 78.5597 29.3463 76.9753 30.0163 74.2824L28.3328 73.8635ZM20.1601 78.8918C14.3316 79.088 10.1628 75.5188 7.71232 70.2483C5.25338 64.9597 4.60632 58.0843 5.84052 52.0881L4.14128 51.7383C2.84001 58.0604 3.50742 65.3194 6.13919 70.9797C8.77938 76.6582 13.4775 80.8526 20.2185 80.6257L20.1601 78.8918ZM5.84052 52.0881C6.89907 46.9452 9.52124 41.9974 13.1076 38.6845C16.6792 35.3853 21.1569 33.7403 26.0396 35.0172L26.4785 33.3387C20.8984 31.8795 15.8322 33.8059 11.9304 37.4101C8.04351 41.0007 5.26297 46.2887 4.14128 51.7383L5.84052 52.0881ZM26.0396 35.0172C27.5709 35.4176 28.725 36.1904 29.4753 37.2624C30.227 38.3364 30.6264 39.7869 30.508 41.6337L32.2393 41.7447C32.3776 39.5874 31.9175 37.7262 30.8966 36.2676C29.8743 34.8069 28.3427 33.8262 26.4785 33.3387L26.0396 35.0172ZM30.508 41.6337C30.3997 43.3225 29.6744 44.4821 28.5629 45.2995C27.4165 46.1426 25.8143 46.6509 23.9498 46.8846L24.1656 48.606C26.1811 48.3533 28.1118 47.7848 29.5908 46.6971C31.1047 45.5837 32.0974 43.9584 32.2393 41.7447L30.508 41.6337ZM23.9498 46.8846C17.7054 47.6675 12.8894 43.1443 10.1535 36.6801C7.42422 30.2313 6.96578 22.2443 9.19824 16.8508L7.59527 16.1873C5.14269 22.1126 5.69388 30.594 8.55588 37.3562C11.4113 44.103 16.7683 49.5335 24.1656 48.606L23.9498 46.8846ZM9.19824 16.8508C10.9312 12.664 15.3651 8.8727 19.5174 6.0817C21.5716 4.70097 23.5149 3.5924 24.9449 2.82903C25.6594 2.44763 26.2444 2.15312 26.6494 1.95461C26.8519 1.85537 27.0093 1.78018 27.1152 1.73016C27.1682 1.70514 27.2083 1.68643 27.2348 1.67416C27.248 1.66802 27.2578 1.6635 27.2641 1.6606C27.2673 1.65915 27.2695 1.65811 27.2709 1.65748C27.2716 1.65716 27.2721 1.65695 27.2723 1.65684C27.2724 1.65678 27.2724 1.65677 27.2725 1.65674C27.2725 1.65676 27.2724 1.65681 26.9124 0.867584C26.5525 0.0783613 26.5523 0.0784595 26.552 0.0785801C26.5518 0.0786526 26.5515 0.0788028 26.5512 0.0789548C26.5505 0.0792518 26.5496 0.0796595 26.5485 0.0801633C26.5463 0.081178 26.5432 0.0826123 26.5392 0.0844476C26.5312 0.0881252 26.5197 0.0934353 26.5047 0.100378C26.4748 0.114255 26.4311 0.134627 26.3745 0.161356C26.2613 0.214798 26.0963 0.29367 25.8859 0.396829C25.465 0.603113 24.862 0.906719 24.128 1.29857C22.6609 2.08171 20.6647 3.22024 18.5497 4.64186C14.3635 7.45557 9.53955 11.49 7.59527 16.1873L9.19824 16.8508ZM26.1692 0.42028L22.0442 7.27404L23.5307 8.16864L27.6556 1.31489L26.1692 0.42028ZM26.8915 0.000405964L18.4939 0.203236L18.5358 1.93758L26.9334 1.73476L26.8915 0.000405964Z" fill="#6C5FBC"/>
</svg>
