<svg width="41" height="41" viewBox="0 0 41 41" fill="none"
     xmlns="http://www.w3.org/2000/svg">
    <path d="M40.0851 20.0426C40.0851 31.1118 31.1118 40.0851 20.0426 40.0851C8.97336 40.0851 0 31.1118 0 20.0426C0 8.97336 8.97336 0 20.0426 0C31.1118 0 40.0851 8.97336 40.0851 20.0426Z"
          fill="#DBD9EE"/>
    <path d="M24.435 10.6742C21.5334 10.1878 18.5555 10.1878 15.6539 10.6742C14.5939 10.8519 13.7497 11.6657 13.5371 12.7209C12.5634 17.5549 12.5103 22.5292 13.3805 27.3829L13.7349 29.359C13.8441 29.9683 14.5869 30.2119 15.0358 29.7855L19.3124 25.7227C19.7226 25.333 20.3663 25.333 20.7765 25.7227L25.0532 29.7855C25.502 30.2119 26.2448 29.9683 26.3541 29.359L26.7084 27.3829C27.5786 22.5292 27.5255 17.5549 26.5518 12.7209C26.3392 11.6657 25.495 10.8519 24.435 10.6742Z"
          fill="#6C5FBC"/>
</svg>
