<svg width="32" height="32" viewBox="0 0 32 32" fill="none" xmlns="http://www.w3.org/2000/svg">
<circle cx="15.9433" cy="15.9433" r="15.9433" fill="#DBD9EE"/>
<path d="M19.4354 8.49187C17.1273 8.10492 14.7584 8.10492 12.4503 8.49187C11.6071 8.63324 10.9355 9.28059 10.7665 10.12C9.9919 13.9653 9.94964 17.9221 10.6419 21.7831L10.9237 23.355C11.0106 23.8398 11.6015 24.0335 11.9586 23.6943L15.3605 20.4625C15.6868 20.1525 16.1988 20.1525 16.5251 20.4625L19.9271 23.6943C20.2841 24.0335 20.875 23.8398 20.9619 23.355L21.2438 21.7831C21.936 17.9221 21.8937 13.9653 21.1192 10.12C20.9501 9.28059 20.2786 8.63324 19.4354 8.49187Z" fill="#6C5FBC"/>
</svg>
