<svg viewBox="0 0 58.6895 44.2515" xmlns="http://www.w3.org/2000/svg" xmlns:xlink="http://www.w3.org/1999/xlink" width="58.689453" height="44.251465" fill="none" customFrame="#000000">
	<path id="Path 173" d="M34.293 38.329L34.2929 38.3287C32.8569 34.021 32.139 29.4739 32.139 24.6874C32.139 18.4893 33.5616 13.2265 36.407 8.89928C36.8404 8.24015 37.3068 7.60273 37.8062 6.98701C38.3698 6.29216 38.9801 5.64913 39.6369 5.05793C43.3836 1.68598 48.6476 0 55.429 0L55.429 9.78182C52.6342 9.78182 50.5898 10.4029 49.2959 11.645C48.002 12.8872 47.3551 15.2679 47.3551 18.7873L47.3551 20.34L58.6896 20.34L58.6896 44.2511L36.797 44.2511C35.8033 42.3301 34.9687 40.356 34.293 38.329ZM0 24.6877C0 31.7264 1.55267 38.2477 4.65799 44.2513L26.5506 44.2513L26.5506 20.3402L15.2161 20.3402L15.2161 18.7875C15.2161 15.2681 15.8631 12.8874 17.157 11.6452C18.4508 10.4031 20.4952 9.78204 23.29 9.78204L23.29 0.000219731C15.3196 0.000219731 9.44538 2.32923 5.66723 6.98723C5.16781 7.60296 4.7014 8.24039 4.26799 8.89952C1.42266 13.2268 0 18.4895 0 24.6877Z" fill="rgb(217.812,217.812,217.812)" fill-rule="evenodd" />
</svg>
