<svg width="29" height="26" viewBox="0 0 29 26" fill="none"
     xmlns="http://www.w3.org/2000/svg">
    <rect width="28.6688" height="25.9811" rx="5.84127" fill="#323142"/>
    <mask id="path-2-inside-1_1_5351" fill="white">
        <path d="M18.8896 13.7851H14.7429V17.9902H13.0881V13.7851H8.96094V12.2861H13.0881V8.06152H14.7429V12.2861H18.8896V13.7851Z"/>
    </mask>
    <path d="M18.8896 13.7851H14.7429V17.9902H13.0881V13.7851H8.96094V12.2861H13.0881V8.06152H14.7429V12.2861H18.8896V13.7851Z"
          fill="white"/>
    <path d="M18.8896 13.7851V16.4728H21.5773V13.7851H18.8896ZM14.7429 13.7851V11.0974H12.0552V13.7851H14.7429ZM14.7429 17.9902V20.6779H17.4306V17.9902H14.7429ZM13.0881 17.9902H10.4004V20.6779H13.0881V17.9902ZM13.0881 13.7851H15.7758V11.0974H13.0881V13.7851ZM8.96094 13.7851H6.27324V16.4728H8.96094V13.7851ZM8.96094 12.2861V9.59836H6.27324V12.2861H8.96094ZM13.0881 12.2861V14.9738H15.7758V12.2861H13.0881ZM13.0881 8.06152V5.37382H10.4004V8.06152H13.0881ZM14.7429 8.06152H17.4306V5.37382H14.7429V8.06152ZM14.7429 12.2861H12.0552V14.9738H14.7429V12.2861ZM18.8896 12.2861H21.5773V9.59836H18.8896V12.2861ZM18.8896 13.7851V11.0974H14.7429V13.7851V16.4728H18.8896V13.7851ZM14.7429 13.7851H12.0552V17.9902H14.7429H17.4306V13.7851H14.7429ZM14.7429 17.9902V15.3025H13.0881V17.9902V20.6779H14.7429V17.9902ZM13.0881 17.9902H15.7758V13.7851H13.0881H10.4004V17.9902H13.0881ZM13.0881 13.7851V11.0974H8.96094V13.7851V16.4728H13.0881V13.7851ZM8.96094 13.7851H11.6486V12.2861H8.96094H6.27324V13.7851H8.96094ZM8.96094 12.2861V14.9738H13.0881V12.2861V9.59836H8.96094V12.2861ZM13.0881 12.2861H15.7758V8.06152H13.0881H10.4004V12.2861H13.0881ZM13.0881 8.06152V10.7492H14.7429V8.06152V5.37382H13.0881V8.06152ZM14.7429 8.06152H12.0552V12.2861H14.7429H17.4306V8.06152H14.7429ZM14.7429 12.2861V14.9738H18.8896V12.2861V9.59836H14.7429V12.2861ZM18.8896 12.2861H16.2019V13.7851H18.8896H21.5773V12.2861H18.8896Z"
          fill="white" mask="url(#path-2-inside-1_1_5351)"/>
</svg>