<svg width="15" height="12" viewBox="0 0 15 12" fill="none" xmlns="http://www.w3.org/2000/svg">
<path fill-rule="evenodd" clip-rule="evenodd" d="M0 3.92179C0 1.70606 1.94387 0 4.22554 0C5.4017 0 6.43665 0.551486 7.17932 1.26507C7.922 0.551486 8.95695 0 10.1331 0C12.4148 0 14.3586 1.70605 14.3586 3.92179C14.3586 5.4396 13.7114 6.77436 12.8146 7.90262C11.9194 9.02893 10.7484 9.98484 9.62724 10.7616C9.199 11.0583 8.76577 11.3319 8.36926 11.5339C7.99695 11.7235 7.56885 11.8972 7.17932 11.8972C6.7898 11.8972 6.3617 11.7235 5.98939 11.5339C5.59288 11.3319 5.15965 11.0583 4.73141 10.7616C3.61022 9.98484 2.43922 9.02893 1.54402 7.90262C0.647272 6.77436 0 5.4396 0 3.92179ZM4.22554 1.23074C2.51953 1.23074 1.23074 2.48536 1.23074 3.92179C1.23074 5.07336 1.71958 6.1455 2.5075 7.13684C3.29698 8.13012 4.35922 9.0065 5.43228 9.7499C5.83832 10.0312 6.22077 10.2705 6.54791 10.4372C6.89925 10.6161 7.10274 10.6664 7.17932 10.6664C7.25591 10.6664 7.4594 10.6161 7.81073 10.4372C8.13787 10.2705 8.52033 10.0312 8.92637 9.7499C9.99943 9.0065 11.0617 8.13012 11.8511 7.13684C12.6391 6.1455 13.1279 5.07335 13.1279 3.92179C13.1279 2.48536 11.8391 1.23074 10.1331 1.23074C9.15331 1.23074 8.23841 1.8161 7.66716 2.55906C7.55068 2.71055 7.37042 2.79933 7.17932 2.79933C6.98822 2.79933 6.80797 2.71055 6.69149 2.55906C6.12023 1.8161 5.20534 1.23074 4.22554 1.23074Z" fill="#323142"/>
</svg>
