<svg width="29" height="26" viewBox="0 0 29 26" fill="none" xmlns="http://www.w3.org/2000/svg">
<rect width="28.6688" height="25.9811" rx="5.84127" fill="#323142"/>
<mask id="path-2-inside-1_1_5351" fill="white">
<path d="M18.8896 13.7853H14.7429V17.9904H13.0881V13.7853H8.96094V12.2863H13.0881V8.06177H14.7429V12.2863H18.8896V13.7853Z"/>
</mask>
<path d="M18.8896 13.7853H14.7429V17.9904H13.0881V13.7853H8.96094V12.2863H13.0881V8.06177H14.7429V12.2863H18.8896V13.7853Z" fill="white"/>
<path d="M18.8896 13.7853V16.473H21.5773V13.7853H18.8896ZM14.7429 13.7853V11.0976H12.0552V13.7853H14.7429ZM14.7429 17.9904V20.6781H17.4306V17.9904H14.7429ZM13.0881 17.9904H10.4004V20.6781H13.0881V17.9904ZM13.0881 13.7853H15.7758V11.0976H13.0881V13.7853ZM8.96094 13.7853H6.27324V16.473H8.96094V13.7853ZM8.96094 12.2863V9.5986H6.27324V12.2863H8.96094ZM13.0881 12.2863V14.974H15.7758V12.2863H13.0881ZM13.0881 8.06177V5.37407H10.4004V8.06177H13.0881ZM14.7429 8.06177H17.4306V5.37407H14.7429V8.06177ZM14.7429 12.2863H12.0552V14.974H14.7429V12.2863ZM18.8896 12.2863H21.5773V9.5986H18.8896V12.2863ZM18.8896 13.7853V11.0976H14.7429V13.7853V16.473H18.8896V13.7853ZM14.7429 13.7853H12.0552V17.9904H14.7429H17.4306V13.7853H14.7429ZM14.7429 17.9904V15.3027H13.0881V17.9904V20.6781H14.7429V17.9904ZM13.0881 17.9904H15.7758V13.7853H13.0881H10.4004V17.9904H13.0881ZM13.0881 13.7853V11.0976H8.96094V13.7853V16.473H13.0881V13.7853ZM8.96094 13.7853H11.6486V12.2863H8.96094H6.27324V13.7853H8.96094ZM8.96094 12.2863V14.974H13.0881V12.2863V9.5986H8.96094V12.2863ZM13.0881 12.2863H15.7758V8.06177H13.0881H10.4004V12.2863H13.0881ZM13.0881 8.06177V10.7495H14.7429V8.06177V5.37407H13.0881V8.06177ZM14.7429 8.06177H12.0552V12.2863H14.7429H17.4306V8.06177H14.7429ZM14.7429 12.2863V14.974H18.8896V12.2863V9.5986H14.7429V12.2863ZM18.8896 12.2863H16.2019V13.7853H18.8896H21.5773V12.2863H18.8896Z" fill="white" mask="url(#path-2-inside-1_1_5351)"/>
</svg>
