<svg viewBox="0 0 634.962 348.51" xmlns="http://www.w3.org/2000/svg" xmlns:xlink="http://www.w3.org/1999/xlink" width="634.961914" height="348.510254" fill="none" customFrame="#000000">
	<g id="Group 34844" opacity="0.25">
		<g id="Watermelon Slice">
			<path id="Vector" />
			<g id="Group">
				<g id="Group">
					<path id="Vector" d="M104.765 115.881C102.003 118.56 98.242 120.188 94.0924 120.158C89.9706 120.127 86.2096 118.468 83.4062 115.759" fill-rule="nonzero" stroke="rgb(27.7894,24.3844,108.375)" stroke-linecap="round" stroke-linejoin="round" stroke-width="3.29924655" />
					<path id="Vector" d="M94.1194 125.179C98.38 125.209 102.335 123.718 105.624 121.131C106.957 120.081 107.331 118.026 106.471 116.443L105.569 114.784L101.836 108.027C101.836 108.027 99.1849 103.218 96.6868 98.6829C95.4794 96.4913 92.676 96.4609 91.4825 98.622L82.6005 114.663L81.7261 116.245C80.8657 117.813 81.2543 119.898 82.6143 120.963C83.0723 121.359 83.5719 121.709 84.0716 122.044C87.0554 124.022 90.4833 125.148 94.1194 125.179Z" fill-rule="nonzero" stroke="rgb(27.7894,24.3844,108.375)" stroke-linecap="round" stroke-linejoin="round" stroke-width="3.29924655" />
				</g>
				<g id="Group">
					<path id="Vector" d="M89.1358 112.733C88.8029 112.581 88.4283 112.581 88.0954 112.733C87.9151 112.809 87.7764 112.915 87.6376 113.052C87.388 113.341 87.2354 113.722 87.2354 114.117C87.2354 114.528 87.3741 114.893 87.6376 115.182C87.9012 115.471 88.2341 115.623 88.6087 115.623C88.9832 115.623 89.3162 115.471 89.5797 115.182C89.8433 114.893 89.982 114.513 89.982 114.117C89.982 113.722 89.8294 113.341 89.5797 113.052C89.4549 112.9 89.3023 112.794 89.1358 112.733Z" fill="rgb(32,29,103)" fill-rule="nonzero" />
					<path id="Vector" d="M94.6036 114.223C94.2707 114.071 93.8961 114.071 93.5632 114.223C93.3967 114.299 93.2441 114.406 93.1054 114.542C92.8557 114.831 92.7031 115.212 92.7031 115.607C92.7031 116.018 92.8418 116.383 93.1054 116.672C93.369 116.961 93.7019 117.113 94.0765 117.113C94.451 117.113 94.7839 116.961 95.0475 116.672C95.3111 116.383 95.4498 116.018 95.4498 115.607C95.4498 115.212 95.2972 114.831 95.0475 114.542C94.9227 114.406 94.7839 114.299 94.6036 114.223Z" fill="rgb(32,29,103)" fill-rule="nonzero" />
					<path id="Vector" d="M100.545 113.036C100.031 112.473 99.1157 112.473 98.6025 113.036C98.3528 113.325 98.2002 113.705 98.2002 114.101C98.2002 114.511 98.3389 114.877 98.6025 115.166C98.866 115.455 99.199 115.607 99.5735 115.607C99.7539 115.607 99.9342 115.561 100.087 115.485C100.253 115.409 100.406 115.303 100.545 115.166C100.808 114.877 100.947 114.511 100.947 114.101C100.933 113.72 100.78 113.325 100.545 113.036Z" fill="rgb(32,29,103)" fill-rule="nonzero" />
					<path id="Vector" d="M98.0879 107.523C98.0185 107.325 97.9214 107.173 97.7965 107.021C97.2833 106.458 96.3677 106.458 95.8544 107.021C95.7296 107.173 95.6325 107.325 95.5631 107.523C95.4938 107.706 95.4521 107.904 95.4521 108.086C95.4521 108.284 95.4938 108.482 95.5631 108.649C95.6325 108.831 95.7296 108.999 95.8544 109.151C96.118 109.44 96.4509 109.592 96.8255 109.592C97.0058 109.592 97.1862 109.546 97.3388 109.47C97.5052 109.394 97.6578 109.288 97.7965 109.151C98.0601 108.862 98.1988 108.497 98.1988 108.086C98.1988 107.904 98.1572 107.706 98.0879 107.523Z" fill="rgb(32,29,103)" fill-rule="nonzero" />
					<path id="Vector" d="M92.6064 107.523C92.537 107.341 92.4399 107.173 92.3151 107.021C91.7879 106.458 90.8724 106.458 90.373 107.021C90.2482 107.173 90.151 107.325 90.0817 107.523C90.0123 107.706 89.9707 107.904 89.9707 108.086C89.9707 108.497 90.1094 108.862 90.373 109.151C90.5117 109.288 90.6643 109.394 90.8308 109.47C90.9972 109.546 91.1776 109.592 91.3579 109.592C91.7325 109.592 92.0654 109.44 92.3289 109.151C92.4538 108.999 92.5509 108.831 92.6203 108.649C92.7035 108.466 92.7312 108.269 92.7312 108.086C92.7174 107.904 92.6896 107.706 92.6064 107.523Z" fill="rgb(32,29,103)" fill-rule="nonzero" />
					<path id="Vector" d="M93.1193 103.158C93.3829 103.447 93.7158 103.599 94.0903 103.599C94.2707 103.599 94.451 103.553 94.6036 103.477C94.7701 103.401 94.9227 103.295 95.0614 103.158C95.1862 103.006 95.2833 102.838 95.3527 102.656C95.4221 102.473 95.4637 102.275 95.4637 102.093C95.4637 101.682 95.3111 101.317 95.0614 101.028C94.673 100.617 94.0765 100.465 93.5632 100.708C93.3829 100.785 93.2441 100.891 93.1054 101.028C92.8557 101.317 92.7031 101.697 92.7031 102.093C92.7031 102.291 92.7447 102.488 92.8141 102.656C92.8973 102.838 92.9944 103.006 93.1193 103.158Z" fill="rgb(32,29,103)" fill-rule="nonzero" />
				</g>
			</g>
		</g>
		<g id="Cookie">
			<path id="Vector" />
			<path id="Vector" d="M426.33 55.1715C420.543 55.1715 415.838 50.0123 415.838 43.6661C415.838 38.0199 419.557 33.3173 424.47 32.3433C424.637 35.7675 426.927 38.583 429.924 39.207C429.869 39.6179 429.827 40.044 429.827 40.4701C429.827 44.4575 432.395 47.7904 435.809 48.5818C434.129 52.4778 430.521 55.1715 426.33 55.1715Z" fill-rule="nonzero" stroke="rgb(27.7894,24.3844,108.375)" stroke-linecap="round" stroke-linejoin="round" stroke-width="3.29924655" />
			<g id="Group">
				<path id="Vector" d="M421.991 37.394C421.144 37.394 420.45 38.1549 420.45 39.0831C420.45 40.0114 421.144 40.7722 421.991 40.7722C422.837 40.7722 423.531 40.0114 423.531 39.0831C423.531 38.1397 422.837 37.394 421.991 37.394Z" fill="rgb(32,29,103)" fill-rule="nonzero" />
				<path id="Vector" d="M418.589 28.5825C417.743 28.5825 417.049 29.3434 417.049 30.2716C417.049 31.1999 417.743 31.9607 418.589 31.9607C419.436 31.9607 420.129 31.1999 420.129 30.2716C420.116 29.3282 419.436 28.5825 418.589 28.5825Z" fill="rgb(32,29,103)" fill-rule="nonzero" />
				<path id="Vector" d="M426.472 42.5835C425.625 42.5835 424.932 43.3443 424.932 44.2726C424.932 45.2008 425.625 45.9617 426.472 45.9617C427.318 45.9617 428.012 45.2008 428.012 44.2726C428.012 43.3291 427.318 42.5835 426.472 42.5835Z" fill="rgb(32,29,103)" fill-rule="nonzero" />
			</g>
			<path id="Vector" d="M427.136 49.7843C427.496 49.5409 427.801 49.3584 427.801 49.3584C427.801 49.3584 427.51 49.5409 427.136 49.7843C426.761 50.0277 426.47 50.2103 426.47 50.2103C426.47 50.2103 426.775 50.0125 427.136 49.7843Z" fill-rule="nonzero" stroke="rgb(27.7894,24.3844,108.375)" stroke-linecap="round" stroke-linejoin="round" stroke-width="3.29924655" />
			<path id="Vector" d="M421.445 45.3244C421.056 45.1419 420.737 44.9897 420.737 44.9897C420.737 44.9897 421.056 45.1419 421.445 45.3244C421.833 45.507 422.152 45.6591 422.152 45.6591C422.152 45.6591 421.833 45.507 421.445 45.3244Z" fill-rule="nonzero" stroke="rgb(27.7894,24.3844,108.375)" stroke-linecap="round" stroke-linejoin="round" stroke-width="3.29924655" />
			<path id="Vector" d="M414.407 34.8359C414.102 35.1553 413.853 35.4139 413.853 35.4139C413.853 35.4139 414.102 35.1553 414.407 34.8359C414.713 34.5164 414.962 34.2578 414.962 34.2578C414.962 34.2578 414.713 34.5164 414.407 34.8359Z" fill-rule="nonzero" stroke="rgb(27.7894,24.3844,108.375)" stroke-linecap="round" stroke-linejoin="round" stroke-width="3.29924655" />
			<path id="Vector" d="M412.451 43.8938C411.008 42.098 410.134 39.7543 410.134 37.1823C410.134 31.5665 414.283 27.0161 419.404 27.0161C423.54 27.0161 427.051 29.9838 428.245 34.0929" fill-rule="nonzero" stroke="rgb(27.7894,24.3844,108.375)" stroke-linecap="round" stroke-linejoin="round" stroke-width="3.29924655" />
		</g>
		<g id="Fish">
			<g id="Container 24x24">
				<path id="Vector" />
			</g>
			<g id="Layer 1">
				<path id="Vector" d="M150.429 161.124C149.537 160.907 148.611 160.938 147.733 161.214C146.855 161.491 146.055 162.004 145.404 162.707C145.129 163.019 144.975 163.436 144.975 163.871C144.975 164.306 145.129 164.723 145.404 165.035L146.987 166.831" fill-rule="nonzero" stroke="rgb(27.7894,24.3844,108.375)" stroke-linecap="round" stroke-linejoin="round" stroke-width="3.29924655" />
				<path id="Vector" d="M160.78 172.673C160.971 173.663 160.934 174.689 160.672 175.659C160.41 176.629 159.932 177.512 159.281 178.229C159.143 178.382 158.979 178.503 158.798 178.586C158.617 178.669 158.423 178.711 158.226 178.711C158.03 178.711 157.836 178.669 157.655 178.586C157.474 178.503 157.31 178.382 157.172 178.229L155.562 176.433" fill-rule="nonzero" stroke="rgb(27.7894,24.3844,108.375)" stroke-linecap="round" stroke-linejoin="round" stroke-width="3.29924655" />
				<path id="Vector" d="M148.084 176.799C148.657 177.792 148.96 178.943 148.959 180.117C148.958 180.91 148.815 181.695 148.536 182.426C148.257 183.158 147.849 183.822 147.335 184.379C147.238 184.475 147.112 184.529 146.981 184.529C146.85 184.529 146.724 184.475 146.627 184.379C146.173 183.875 145.81 183.281 145.558 182.629C145.329 182.152 145.169 181.638 145.086 181.106C145.054 180.783 145.054 180.456 145.086 180.132C145.336 178.652 146.023 177.304 147.043 176.297C146.098 177.388 144.856 178.114 143.504 178.367C143.208 178.398 142.911 178.398 142.615 178.367C142.13 178.263 141.662 178.078 141.227 177.819C140.63 177.508 140.093 177.074 139.645 176.54C139.557 176.434 139.509 176.296 139.509 176.152C139.509 176.009 139.557 175.87 139.645 175.764C140.684 174.65 142.079 174.027 143.532 174.029C144.597 174.036 145.638 174.38 146.53 175.018" fill-rule="nonzero" stroke="rgb(27.7894,24.3844,108.375)" stroke-linecap="round" stroke-linejoin="round" stroke-width="3.29924655" />
				<path id="Vector" d="M163.446 157.212C162.875 156.813 162.237 156.543 161.57 156.418C160.903 156.292 160.22 156.314 159.56 156.481C158.001 156.74 156.497 157.302 155.119 158.14C152.527 159.513 150.35 161.674 148.846 164.365C147.513 167.07 146.758 170.073 146.64 173.146C146.64 173.359 146.404 174.957 146.556 175.064L148.097 176.799C148.194 176.966 149.637 176.799 149.832 176.723C152.647 176.642 155.408 175.845 157.895 174.394C160.362 172.796 162.349 170.442 163.613 167.622C164.834 164.837 166.222 160.408 164.001 157.76C163.837 157.554 163.65 157.37 163.446 157.212Z" fill-rule="nonzero" stroke="rgb(27.7894,24.3844,108.375)" stroke-linecap="round" stroke-linejoin="round" stroke-width="3.29924655" />
				<path id="Vector" d="M154.342 159.525C154.905 161.602 155.919 163.498 157.298 165.05C158.683 166.598 160.394 167.748 162.281 168.399" fill-rule="nonzero" stroke="rgb(27.7894,24.3844,108.375)" stroke-linecap="round" stroke-linejoin="round" stroke-width="3.29924655" />
				<path id="Vector" d="M160.336 159.571C160.207 159.423 160.051 159.306 159.88 159.226C159.708 159.146 159.523 159.105 159.337 159.105C159.15 159.105 158.966 159.146 158.794 159.226C158.622 159.306 158.467 159.423 158.338 159.571C158.149 159.786 158.022 160.057 157.972 160.35C157.923 160.644 157.953 160.947 158.06 161.222C158.166 161.497 158.344 161.731 158.571 161.896C158.798 162.061 159.065 162.148 159.337 162.148C159.609 162.148 159.875 162.061 160.103 161.896C160.33 161.731 160.507 161.497 160.614 161.222C160.72 160.947 160.751 160.644 160.701 160.35C160.652 160.057 160.525 159.786 160.336 159.571Z" fill="rgb(32,29,103)" fill-rule="nonzero" />
			</g>
		</g>
		<g id="Ice Cream">
			<path id="Vector" />
			<g id="Group">
				<g id="Group">
					<path id="Vector" d="M290.98 168.838L296.684 186.05L302.388 168.838" fill-rule="nonzero" stroke="rgb(27.7894,24.3844,108.375)" stroke-linecap="round" stroke-linejoin="round" stroke-width="3.29924655" />
					<g id="Group">
						<path id="Vector" d="M305.246 168.062C305.01 168.062 304.802 168.077 304.607 168.108C303.081 168.382 302.873 169.63 300.957 169.63C298.806 169.63 298.806 168.062 296.683 168.062C294.532 168.062 294.532 169.63 292.408 169.63C290.493 169.63 290.299 168.397 288.759 168.108C288.578 168.077 288.356 168.062 288.12 168.062" fill-rule="nonzero" stroke="rgb(27.7894,24.3844,108.375)" stroke-linecap="round" stroke-linejoin="round" stroke-width="3.29924655" />
						<path id="Vector" d="M303.469 168.109C302.151 168.383 301.984 169.631 300.346 169.631C298.5 169.631 298.5 168.063 296.682 168.063C294.836 168.063 294.836 169.631 293.018 169.631C291.38 169.631 291.2 168.398 289.895 168.109C289.673 167.363 289.548 166.541 289.548 165.719C289.548 161.397 292.74 157.896 296.682 157.896C300.624 157.896 303.816 161.397 303.816 165.719C303.816 166.541 303.705 167.363 303.469 168.109Z" fill-rule="nonzero" stroke="rgb(27.7894,24.3844,108.375)" stroke-linecap="round" stroke-linejoin="round" stroke-width="3.29924655" />
					</g>
					<path id="Vector" d="M303.818 170.408L289.55 170.408" stroke="rgb(27.7894,24.3844,108.375)" stroke-linecap="round" stroke-linejoin="round" stroke-width="3.29924655" />
				</g>
			</g>
		</g>
		<g id="Breakfast Bowl">
			<path id="Vector" />
			<g id="Group">
				<g id="Group">
					<path id="Vector" d="M437.826 171.055L437.826 172.669L427.555 172.669L427.555 171.055L437.826 171.055Z" stroke="rgb(27.7894,24.3844,108.375)" stroke-linecap="round" stroke-linejoin="round" stroke-width="3.29924655" />
					<path id="Vector" d="M445.485 160.161C444.028 166.416 438.851 171.042 432.689 171.042C426.527 171.042 421.351 166.416 419.894 160.161C419.658 159.156 420.379 158.182 421.337 158.182L444.042 158.182C444.985 158.182 445.707 159.156 445.485 160.161Z" fill-rule="nonzero" stroke="rgb(27.7894,24.3844,108.375)" stroke-linecap="round" stroke-linejoin="round" stroke-width="3.29924655" />
				</g>
				<g id="Group">
					<path id="Vector" d="M427.152 158.188C425.535 158.188 424.224 156.75 424.224 154.976C424.224 153.203 425.535 151.765 427.152 151.765C428.77 151.765 430.081 153.203 430.081 154.976C430.081 156.75 428.77 158.188 427.152 158.188Z" stroke="rgb(27.7894,24.3844,108.375)" stroke-linecap="round" stroke-linejoin="round" stroke-width="3.29924655" />
					<path id="Vector" d="M438.227 157.944C436.61 157.944 435.299 156.506 435.299 154.732C435.299 152.958 436.61 151.521 438.227 151.521C439.845 151.521 441.156 152.958 441.156 154.732C441.156 156.506 439.845 157.944 438.227 157.944Z" stroke="rgb(27.7894,24.3844,108.375)" stroke-linecap="round" stroke-linejoin="round" stroke-width="3.29924655" />
					<path id="Vector" d="M433.147 157.959C431.928 157.959 430.94 156.876 430.94 155.539C430.94 154.203 431.928 153.119 433.147 153.119C434.366 153.119 435.354 154.203 435.354 155.539C435.354 156.876 434.366 157.959 433.147 157.959Z" stroke="rgb(27.7894,24.3844,108.375)" stroke-linecap="round" stroke-linejoin="round" stroke-width="3.29924655" />
				</g>
				<path id="Vector" d="M425.556 151.975L420.948 146.921" stroke="rgb(27.7894,24.3844,108.375)" stroke-linecap="round" stroke-linejoin="round" stroke-width="3.29924655" />
				<path id="Vector" d="M421.695 162.978L443.678 162.978" stroke="rgb(27.7894,24.3844,108.375)" stroke-linecap="round" stroke-linejoin="round" stroke-width="3.29924655" />
			</g>
		</g>
		<g id="Serving Plate">
			<path id="Vector" />
			<g id="Group">
				<path id="Vector" d="M353.578 95.8784C353.578 98.4047 355.438 100.444 357.742 100.444L374.395 100.444C376.699 100.444 378.559 98.4047 378.559 95.8784L353.578 95.8784Z" fill-rule="nonzero" stroke="rgb(27.7894,24.3844,108.375)" stroke-linecap="round" stroke-linejoin="round" stroke-width="3.29924655" />
				<path id="Vector" d="M354.965 94.3543L354.965 95.8762L377.17 95.8762L377.17 94.3543C377.17 87.6275 372.202 82.1792 366.067 82.1792C359.933 82.1792 354.965 87.6275 354.965 94.3543Z" fill-rule="nonzero" stroke="rgb(27.7894,24.3844,108.375)" stroke-linecap="round" stroke-linejoin="round" stroke-width="3.29924655" />
				<path id="Vector" d="M366.067 83.3229C367.408 83.3229 368.496 82.1303 368.496 80.6592C368.496 79.1882 367.408 77.9956 366.067 77.9956C364.725 77.9956 363.638 79.1882 363.638 80.6592C363.638 82.1303 364.725 83.3229 366.067 83.3229Z" fill="rgb(32,29,103)" fill-rule="evenodd" />
			</g>
		</g>
		<g id="Pizza Slice">
			<path id="Vector" />
			<path id="Vector" d="M278.937 74.644C282.781 74.9028 286.625 76.7442 289.664 80.1228C292.676 83.471 294.327 87.7322 294.577 91.9935" fill-rule="nonzero" stroke="rgb(27.7894,24.3844,108.375)" stroke-linecap="round" stroke-linejoin="round" stroke-width="3.29924655" />
			<path id="Vector" d="M294.453 93.4382L277.133 98.08C274.802 98.7039 272.762 96.4211 273.345 93.8339L274.566 88.3551L274.649 88.0051L275.718 83.2416L275.815 82.785L277.619 74.7951L278.063 72.8471C278.48 70.9752 280.131 69.7729 281.824 70.0773C285.988 70.823 289.901 72.9232 293.024 76.3931C296.133 79.8326 298.006 84.1699 298.686 88.7812C298.964 90.6684 297.854 92.5251 296.16 92.9817L294.453 93.4382Z" fill-rule="nonzero" stroke="rgb(27.7894,24.3844,108.375)" stroke-linecap="round" stroke-linejoin="round" stroke-width="3.29924655" />
			<path id="Vector" d="M285.694 88.1146C284.468 88.1146 283.474 87.0107 283.474 85.6489C283.474 84.2871 284.468 83.1831 285.694 83.1831C286.921 83.1831 287.915 84.2871 287.915 85.6489C287.915 87.0107 286.921 88.1146 285.694 88.1146Z" stroke="rgb(27.7894,24.3844,108.375)" stroke-linecap="round" stroke-linejoin="round" stroke-width="3.29924655" />
			<path id="Vector" d="M274.649 87.9772L276.037 81.7671C276.565 81.9041 277.065 82.1781 277.481 82.6347C278.619 83.898 278.619 85.9376 277.481 87.1857C276.718 88.0381 275.621 88.312 274.649 87.9772Z" fill-rule="nonzero" stroke="rgb(27.7894,24.3844,108.375)" stroke-linecap="round" stroke-linejoin="round" stroke-width="3.29924655" />
			<path id="Vector" d="M279.226 95.8596C279.018 94.9768 279.226 94.0027 279.836 93.3178C280.766 92.2828 282.265 92.2828 283.195 93.3178C283.501 93.6526 283.709 94.0636 283.806 94.505" fill-rule="nonzero" stroke="rgb(27.7894,24.3844,108.375)" stroke-linecap="round" stroke-linejoin="round" stroke-width="3.29924655" />
		</g>
		<g id="Hot Dog">
			<path id="Vector" />
			<g id="Group">
				<path id="Vector" d="M209.128 112.848C207.615 114.507 207.615 117.186 209.128 118.844C210.64 120.503 213.083 120.503 214.596 118.844L228.807 103.26C230.32 101.602 230.32 98.923 228.807 97.2642C227.294 95.6053 224.852 95.6053 223.339 97.2642L209.128 112.848Z" fill-rule="nonzero" stroke="rgb(27.7894,24.3844,108.375)" stroke-linecap="round" stroke-linejoin="round" stroke-width="3.29924655" />
				<g id="Group">
					<path id="Vector" d="M212.109 114.923C213.747 113.127 214.33 113.766 215.982 111.97C217.62 110.174 217.037 109.535 218.675 107.723C220.312 105.927 220.909 106.567 222.547 104.771C224.185 102.974 223.602 102.32 225.24 100.524" fill-rule="nonzero" stroke="rgb(27.7894,24.3844,108.375)" stroke-linecap="round" stroke-linejoin="round" stroke-width="3.29924655" />
				</g>
				<path id="Vector" d="M207.488 107.463C205.67 109.457 205.67 112.668 207.488 114.661L224.974 95.4856C223.17 93.4767 220.228 93.4767 218.424 95.4704L207.488 107.463Z" fill-rule="nonzero" stroke="rgb(27.7894,24.3844,108.375)" stroke-linecap="round" stroke-linejoin="round" stroke-width="3.29924655" />
				<path id="Vector" d="M230.443 108.648C232.261 106.654 232.261 103.443 230.443 101.449L212.956 120.625C214.76 122.634 217.702 122.634 219.507 120.64L230.443 108.648Z" fill-rule="nonzero" stroke="rgb(27.7894,24.3844,108.375)" stroke-linecap="round" stroke-linejoin="round" stroke-width="3.29924655" />
			</g>
		</g>
		<g id="Burger">
			<path id="Vector" />
			<g id="Group">
				<path id="Vector" d="M135.689 62.7351C133.219 62.7351 131.221 60.5436 131.221 57.8346L131.221 54.9126L154.036 54.9126L154.036 57.8346C154.036 60.5436 152.038 62.7351 149.568 62.7351L135.689 62.7351Z" fill-rule="nonzero" stroke="rgb(27.7894,24.3844,108.375)" stroke-linecap="round" stroke-linejoin="round" stroke-width="3.29924655" />
				<path id="Vector" d="M131.928 50.2222C130.749 50.2222 129.791 51.2723 129.791 52.5659C129.791 53.8595 130.749 54.9096 131.928 54.9096L153.328 54.9096C154.508 54.9096 155.466 53.8595 155.466 52.5659C155.466 51.2723 154.508 50.2222 153.328 50.2222L131.928 50.2222Z" fill-rule="nonzero" stroke="rgb(27.7894,24.3844,108.375)" stroke-linecap="round" stroke-linejoin="round" stroke-width="3.29924655" />
				<path id="Vector" d="M141.893 37.7144C135.995 37.7144 131.221 42.9496 131.221 49.4176L131.221 50.2242L154.036 50.2242L154.036 49.4176C154.036 42.9496 149.262 37.7144 143.364 37.7144L141.893 37.7144Z" fill-rule="nonzero" stroke="rgb(27.7894,24.3844,108.375)" stroke-linecap="round" stroke-linejoin="round" stroke-width="3.29924655" />
				<g id="Group">
					<path id="Vector" d="M131.067 55.2935C131.609 55.9326 131.997 56.8 133.01 56.8C134.023 56.8 134.412 55.9326 134.953 55.2935" fill-rule="nonzero" stroke="rgb(27.7894,24.3844,108.375)" stroke-linecap="round" stroke-linejoin="round" stroke-width="3.29924655" />
					<path id="Vector" d="M144.099 55.2935C144.64 55.9326 145.028 56.8 146.041 56.8C147.068 56.8 147.457 55.9326 147.998 55.2935" fill-rule="nonzero" stroke="rgb(27.7894,24.3844,108.375)" stroke-linecap="round" stroke-linejoin="round" stroke-width="3.29924655" />
					<path id="Vector" d="M152.579 56.7838C151.566 56.7838 151.178 55.9167 150.637 55.2778" fill-rule="nonzero" stroke="rgb(27.7894,24.3844,108.375)" stroke-linecap="round" stroke-linejoin="round" stroke-width="3.29924655" />
					<path id="Vector" d="M137.591 55.2935C138.132 55.9326 138.521 56.8 139.534 56.8C140.547 56.8 140.935 55.9326 141.476 55.2935" fill-rule="nonzero" stroke="rgb(27.7894,24.3844,108.375)" stroke-linecap="round" stroke-linejoin="round" stroke-width="3.29924655" />
				</g>
			</g>
		</g>
		<g id="Watermelon Slice">
			<path id="Vector" />
			<g id="Group">
				<g id="Group">
					<path id="Vector" d="M27.3312 265.021C24.5694 267.7 20.8084 269.328 16.6588 269.298C12.537 269.267 8.77605 267.608 5.97266 264.899" fill-rule="nonzero" stroke="rgb(27.7894,24.3844,108.375)" stroke-linecap="round" stroke-linejoin="round" stroke-width="3.29924655" />
					<path id="Vector" d="M16.6858 274.32C20.9464 274.351 24.9016 272.859 28.1908 270.272C29.5231 269.222 29.8978 267.168 29.0373 265.585L28.1353 263.926L24.402 257.169C24.402 257.169 21.7513 252.36 19.2532 247.824C18.0458 245.633 15.2424 245.603 14.0489 247.764L5.16688 263.804L4.29255 265.387C3.4321 266.955 3.82069 269.04 5.18075 270.105C5.63873 270.501 6.13835 270.851 6.63797 271.185C9.62177 273.164 13.0497 274.29 16.6858 274.32Z" fill-rule="nonzero" stroke="rgb(27.7894,24.3844,108.375)" stroke-linecap="round" stroke-linejoin="round" stroke-width="3.29924655" />
				</g>
				<g id="Group">
					<path id="Vector" d="M11.6983 261.868C11.3654 261.715 10.9908 261.715 10.6579 261.868C10.4776 261.944 10.3389 262.05 10.2002 262.187C9.95046 262.476 9.79785 262.856 9.79785 263.252C9.79785 263.663 9.93658 264.028 10.2002 264.317C10.4637 264.606 10.7966 264.758 11.1712 264.758C11.5457 264.758 11.8787 264.606 12.1422 264.317C12.4058 264.028 12.5445 263.647 12.5445 263.252C12.5445 262.856 12.3919 262.476 12.1422 262.187C12.0174 262.035 11.8648 261.928 11.6983 261.868Z" fill="rgb(32,29,103)" fill-rule="nonzero" />
					<path id="Vector" d="M17.1661 263.362C16.8332 263.21 16.4586 263.21 16.1257 263.362C15.9592 263.438 15.8066 263.544 15.6679 263.681C15.4182 263.97 15.2656 264.35 15.2656 264.746C15.2656 265.157 15.4043 265.522 15.6679 265.811C15.9315 266.1 16.2644 266.252 16.639 266.252C17.0135 266.252 17.3464 266.1 17.61 265.811C17.8736 265.522 18.0123 265.157 18.0123 264.746C18.0123 264.35 17.8597 263.97 17.61 263.681C17.4852 263.544 17.3464 263.438 17.1661 263.362Z" fill="rgb(32,29,103)" fill-rule="nonzero" />
					<path id="Vector" d="M23.1061 262.173C22.5928 261.61 21.6773 261.61 21.164 262.173C20.9143 262.462 20.7617 262.842 20.7617 263.237C20.7617 263.648 20.9004 264.013 21.164 264.302C21.4276 264.591 21.7605 264.743 22.135 264.743C22.3154 264.743 22.4957 264.698 22.6483 264.622C22.8148 264.546 22.9674 264.439 23.1061 264.302C23.3696 264.013 23.5084 263.648 23.5084 263.237C23.4945 262.857 23.3419 262.462 23.1061 262.173Z" fill="rgb(32,29,103)" fill-rule="nonzero" />
					<path id="Vector" d="M20.6494 256.663C20.58 256.465 20.4829 256.313 20.3581 256.161C19.8448 255.598 18.9292 255.598 18.416 256.161C18.2911 256.313 18.194 256.465 18.1247 256.663C18.0553 256.845 18.0137 257.043 18.0137 257.226C18.0137 257.424 18.0553 257.621 18.1247 257.789C18.194 257.971 18.2911 258.138 18.416 258.291C18.6795 258.58 19.0125 258.732 19.387 258.732C19.5674 258.732 19.7477 258.686 19.9003 258.61C20.0667 258.534 20.2193 258.427 20.3581 258.291C20.6216 258.002 20.7604 257.636 20.7604 257.226C20.7604 257.043 20.7187 256.845 20.6494 256.663Z" fill="rgb(32,29,103)" fill-rule="nonzero" />
					<path id="Vector" d="M15.166 256.663C15.0966 256.48 14.9995 256.313 14.8747 256.161C14.3475 255.598 13.432 255.598 12.9326 256.161C12.8077 256.313 12.7106 256.465 12.6413 256.663C12.5719 256.845 12.5303 257.043 12.5303 257.226C12.5303 257.636 12.669 258.002 12.9326 258.291C13.0713 258.427 13.2239 258.534 13.3903 258.61C13.5568 258.686 13.7371 258.732 13.9175 258.732C14.292 258.732 14.6249 258.58 14.8885 258.291C15.0134 258.138 15.1105 257.971 15.1798 257.789C15.2631 257.606 15.2908 257.408 15.2908 257.226C15.2769 257.043 15.2492 256.845 15.166 256.663Z" fill="rgb(32,29,103)" fill-rule="nonzero" />
					<path id="Vector" d="M15.6818 252.295C15.9454 252.584 16.2783 252.736 16.6528 252.736C16.8332 252.736 17.0135 252.69 17.1661 252.614C17.3326 252.538 17.4851 252.432 17.6239 252.295C17.7487 252.143 17.8458 251.975 17.9152 251.793C17.9846 251.61 18.0262 251.413 18.0262 251.23C18.0262 250.819 17.8736 250.454 17.6239 250.165C17.2355 249.754 16.639 249.602 16.1257 249.846C15.9453 249.922 15.8066 250.028 15.6679 250.165C15.4182 250.454 15.2656 250.834 15.2656 251.23C15.2656 251.428 15.3072 251.626 15.3766 251.793C15.4598 251.975 15.5569 252.143 15.6818 252.295Z" fill="rgb(32,29,103)" fill-rule="nonzero" />
				</g>
			</g>
		</g>
		<g id="Watermelon Slice">
			<path id="Vector" />
			<g id="Group">
				<g id="Group">
					<path id="Vector" d="M501.014 83.9162C498.252 86.5947 494.491 88.2231 490.341 88.1927C486.22 88.1622 482.459 86.5034 479.655 83.7944" fill-rule="nonzero" stroke="rgb(27.7894,24.3844,108.375)" stroke-linecap="round" stroke-linejoin="round" stroke-width="3.29924655" />
					<path id="Vector" d="M490.369 93.213C494.63 93.2435 498.585 91.752 501.874 89.1648C503.207 88.1147 503.581 86.0602 502.721 84.4774L501.819 82.8186L498.086 76.0614C498.086 76.0614 495.435 71.2522 492.937 66.717C491.729 64.5255 488.926 64.4951 487.733 66.6562L478.85 82.6968L477.976 84.2796C477.116 85.8471 477.504 87.9321 478.864 88.9974C479.322 89.3931 479.822 89.7431 480.322 90.078C483.305 92.0564 486.733 93.1826 490.369 93.213Z" fill-rule="nonzero" stroke="rgb(27.7894,24.3844,108.375)" stroke-linecap="round" stroke-linejoin="round" stroke-width="3.29924655" />
				</g>
				<g id="Group">
					<path id="Vector" d="M485.388 80.764C485.055 80.6119 484.68 80.6119 484.347 80.764C484.167 80.8401 484.028 80.9465 483.89 81.0834C483.64 81.3725 483.487 81.7528 483.487 82.1483C483.487 82.559 483.626 82.9241 483.89 83.2131C484.153 83.5022 484.486 83.6543 484.861 83.6543C485.235 83.6543 485.568 83.5022 485.832 83.2131C486.095 82.9241 486.234 82.5438 486.234 82.1483C486.234 81.7528 486.081 81.3725 485.832 81.0834C485.707 80.9313 485.554 80.8248 485.388 80.764Z" fill="rgb(32,29,103)" fill-rule="nonzero" />
					<path id="Vector" d="M490.857 82.2591C490.524 82.107 490.149 82.107 489.816 82.2591C489.65 82.3352 489.497 82.4416 489.358 82.5786C489.109 82.8676 488.956 83.2479 488.956 83.6434C488.956 84.0541 489.095 84.4192 489.358 84.7083C489.622 84.9973 489.955 85.1494 490.329 85.1494C490.704 85.1494 491.037 84.9973 491.3 84.7083C491.564 84.4192 491.703 84.0541 491.703 83.6434C491.703 83.2479 491.55 82.8676 491.3 82.5786C491.176 82.4416 491.037 82.3352 490.857 82.2591Z" fill="rgb(32,29,103)" fill-rule="nonzero" />
					<path id="Vector" d="M496.797 81.0691C496.283 80.5063 495.368 80.5063 494.854 81.0691C494.605 81.3581 494.452 81.7384 494.452 82.134C494.452 82.5447 494.591 82.9098 494.854 83.1988C495.118 83.4878 495.451 83.64 495.825 83.64C496.006 83.64 496.186 83.5943 496.339 83.5183C496.505 83.4422 496.658 83.3357 496.797 83.1988C497.06 82.9098 497.199 82.5447 497.199 82.134C497.185 81.7536 497.032 81.3581 496.797 81.0691Z" fill="rgb(32,29,103)" fill-rule="nonzero" />
					<path id="Vector" d="M494.337 75.5589C494.268 75.3611 494.17 75.209 494.046 75.0569C493.532 74.4941 492.617 74.4941 492.103 75.0569C491.979 75.209 491.882 75.3611 491.812 75.5589C491.743 75.7414 491.701 75.9392 491.701 76.1217C491.701 76.3195 491.743 76.5173 491.812 76.6846C491.882 76.8671 491.979 77.0345 492.103 77.1866C492.367 77.4756 492.7 77.6277 493.075 77.6277C493.255 77.6277 493.435 77.5821 493.588 77.506C493.754 77.43 493.907 77.3235 494.046 77.1866C494.309 76.8976 494.448 76.5325 494.448 76.1217C494.448 75.9392 494.406 75.7414 494.337 75.5589Z" fill="rgb(32,29,103)" fill-rule="nonzero" />
					<path id="Vector" d="M488.855 75.5589C488.786 75.3763 488.689 75.209 488.564 75.0569C488.037 74.4941 487.121 74.4941 486.622 75.0569C486.497 75.209 486.4 75.3611 486.331 75.5589C486.261 75.7414 486.22 75.9392 486.22 76.1217C486.22 76.5325 486.358 76.8976 486.622 77.1866C486.761 77.3235 486.913 77.43 487.08 77.506C487.246 77.5821 487.427 77.6277 487.607 77.6277C487.981 77.6277 488.314 77.4756 488.578 77.1866C488.703 77.0345 488.8 76.8671 488.869 76.6846C488.953 76.502 488.98 76.3043 488.98 76.1217C488.966 75.9392 488.939 75.7414 488.855 75.5589Z" fill="rgb(32,29,103)" fill-rule="nonzero" />
					<path id="Vector" d="M489.372 71.1913C489.636 71.4804 489.969 71.6325 490.343 71.6325C490.524 71.6325 490.704 71.5868 490.857 71.5108C491.023 71.4347 491.176 71.3282 491.314 71.1913C491.439 71.0392 491.536 70.8719 491.606 70.6893C491.675 70.5068 491.717 70.309 491.717 70.1265C491.717 69.7158 491.564 69.3507 491.314 69.0616C490.926 68.6509 490.329 68.4988 489.816 68.7422C489.636 68.8182 489.497 68.9247 489.358 69.0616C489.109 69.3507 488.956 69.731 488.956 70.1265C488.956 70.3242 488.998 70.522 489.067 70.6893C489.15 70.8719 489.247 71.0392 489.372 71.1913Z" fill="rgb(32,29,103)" fill-rule="nonzero" />
				</g>
			</g>
		</g>
		<g id="Watermelon Slice">
			<path id="Vector" />
			<g id="Group">
				<g id="Group">
					<path id="Vector" d="M455.844 274.155C453.082 276.834 449.321 278.462 445.172 278.432C441.05 278.401 437.289 276.743 434.485 274.034" fill-rule="nonzero" stroke="rgb(27.7894,24.3844,108.375)" stroke-linecap="round" stroke-linejoin="round" stroke-width="3.29924655" />
					<path id="Vector" d="M445.198 283.453C449.459 283.484 453.414 281.992 456.703 279.405C458.036 278.355 458.41 276.3 457.55 274.718L456.648 273.059L452.915 266.302C452.915 266.302 450.264 261.492 447.766 256.957C446.559 254.766 443.755 254.735 442.562 256.896L433.68 272.937L432.805 274.52C431.945 276.087 432.333 278.172 433.693 279.238C434.151 279.633 434.651 279.983 435.151 280.318C438.134 282.297 441.562 283.423 445.198 283.453Z" fill-rule="nonzero" stroke="rgb(27.7894,24.3844,108.375)" stroke-linecap="round" stroke-linejoin="round" stroke-width="3.29924655" />
				</g>
				<g id="Group">
					<path id="Vector" d="M440.216 271.005C439.883 270.853 439.508 270.853 439.175 271.005C438.995 271.081 438.856 271.188 438.718 271.325C438.468 271.614 438.315 271.994 438.315 272.389C438.315 272.8 438.454 273.165 438.718 273.454C438.981 273.743 439.314 273.896 439.689 273.896C440.063 273.896 440.396 273.743 440.66 273.454C440.923 273.165 441.062 272.785 441.062 272.389C441.062 271.994 440.91 271.614 440.66 271.325C440.535 271.173 440.382 271.066 440.216 271.005Z" fill="rgb(32,29,103)" fill-rule="nonzero" />
					<path id="Vector" d="M445.684 272.497C445.351 272.345 444.976 272.345 444.643 272.497C444.477 272.573 444.324 272.68 444.185 272.817C443.936 273.106 443.783 273.486 443.783 273.882C443.783 274.292 443.922 274.658 444.185 274.947C444.449 275.236 444.782 275.388 445.157 275.388C445.531 275.388 445.864 275.236 446.128 274.947C446.391 274.658 446.53 274.292 446.53 273.882C446.53 273.486 446.377 273.106 446.128 272.817C446.003 272.68 445.864 272.573 445.684 272.497Z" fill="rgb(32,29,103)" fill-rule="nonzero" />
					<path id="Vector" d="M451.625 271.31C451.111 270.747 450.196 270.747 449.683 271.31C449.433 271.599 449.28 271.98 449.28 272.375C449.28 272.786 449.419 273.151 449.683 273.44C449.946 273.729 450.279 273.881 450.654 273.881C450.834 273.881 451.014 273.836 451.167 273.759C451.333 273.683 451.486 273.577 451.625 273.44C451.888 273.151 452.027 272.786 452.027 272.375C452.013 271.995 451.86 271.599 451.625 271.31Z" fill="rgb(32,29,103)" fill-rule="nonzero" />
					<path id="Vector" d="M449.168 265.798C449.099 265.6 449.001 265.448 448.877 265.296C448.363 264.733 447.448 264.733 446.935 265.296C446.81 265.448 446.713 265.6 446.643 265.798C446.574 265.98 446.532 266.178 446.532 266.361C446.532 266.558 446.574 266.756 446.643 266.923C446.713 267.106 446.81 267.273 446.935 267.425C447.198 267.714 447.531 267.867 447.906 267.867C448.086 267.867 448.266 267.821 448.419 267.745C448.585 267.669 448.738 267.562 448.877 267.425C449.14 267.136 449.279 266.771 449.279 266.361C449.279 266.178 449.237 265.98 449.168 265.798Z" fill="rgb(32,29,103)" fill-rule="nonzero" />
					<path id="Vector" d="M443.685 265.798C443.615 265.615 443.518 265.448 443.393 265.296C442.866 264.733 441.951 264.733 441.451 265.296C441.326 265.448 441.229 265.6 441.16 265.798C441.09 265.98 441.049 266.178 441.049 266.361C441.049 266.771 441.188 267.136 441.451 267.425C441.59 267.562 441.742 267.669 441.909 267.745C442.075 267.821 442.256 267.867 442.436 267.867C442.811 267.867 443.143 267.714 443.407 267.425C443.532 267.273 443.629 267.106 443.698 266.923C443.782 266.741 443.809 266.543 443.809 266.361C443.796 266.178 443.768 265.98 443.685 265.798Z" fill="rgb(32,29,103)" fill-rule="nonzero" />
					<path id="Vector" d="M444.199 261.432C444.463 261.721 444.796 261.873 445.17 261.873C445.351 261.873 445.531 261.827 445.684 261.751C445.85 261.675 446.003 261.568 446.141 261.432C446.266 261.279 446.363 261.112 446.433 260.93C446.502 260.747 446.544 260.549 446.544 260.367C446.544 259.956 446.391 259.591 446.141 259.302C445.753 258.891 445.157 258.739 444.643 258.982C444.463 259.058 444.324 259.165 444.185 259.302C443.936 259.591 443.783 259.971 443.783 260.367C443.783 260.564 443.825 260.762 443.894 260.93C443.977 261.112 444.075 261.279 444.199 261.432Z" fill="rgb(32,29,103)" fill-rule="nonzero" />
				</g>
			</g>
		</g>
		<g id="Cookie">
			<path id="Vector" />
			<path id="Vector" d="M359.714 204.316C353.926 204.316 349.222 199.156 349.222 192.81C349.222 187.164 352.941 182.461 357.854 181.487C358.02 184.912 360.31 187.727 363.308 188.351C363.253 188.762 363.211 189.188 363.211 189.614C363.211 193.602 365.778 196.934 369.192 197.726C367.513 201.622 363.905 204.316 359.714 204.316Z" fill-rule="nonzero" stroke="rgb(27.7894,24.3844,108.375)" stroke-linecap="round" stroke-linejoin="round" stroke-width="3.29924655" />
			<g id="Group">
				<path id="Vector" d="M355.366 186.542C354.52 186.542 353.826 187.303 353.826 188.231C353.826 189.159 354.52 189.92 355.366 189.92C356.213 189.92 356.907 189.159 356.907 188.231C356.907 187.288 356.213 186.542 355.366 186.542Z" fill="rgb(32,29,103)" fill-rule="nonzero" />
				<path id="Vector" d="M351.965 177.731C351.119 177.731 350.425 178.492 350.425 179.42C350.425 180.348 351.119 181.109 351.965 181.109C352.812 181.109 353.505 180.348 353.505 179.42C353.492 178.477 352.812 177.731 351.965 177.731Z" fill="rgb(32,29,103)" fill-rule="nonzero" />
				<path id="Vector" d="M359.849 191.734C359.002 191.734 358.309 192.495 358.309 193.423C358.309 194.351 359.002 195.112 359.849 195.112C360.695 195.112 361.389 194.351 361.389 193.423C361.389 192.48 360.695 191.734 359.849 191.734Z" fill="rgb(32,29,103)" fill-rule="nonzero" />
			</g>
			<path id="Vector" d="M360.519 198.925C360.88 198.682 361.185 198.5 361.185 198.5C361.185 198.5 360.894 198.682 360.519 198.925C360.145 199.169 359.854 199.351 359.854 199.351C359.854 199.351 360.159 199.154 360.519 198.925Z" fill-rule="nonzero" stroke="rgb(27.7894,24.3844,108.375)" stroke-linecap="round" stroke-linejoin="round" stroke-width="3.29924655" />
			<path id="Vector" d="M354.828 194.47C354.439 194.287 354.12 194.135 354.12 194.135C354.12 194.135 354.439 194.287 354.828 194.47C355.216 194.652 355.535 194.805 355.535 194.805C355.535 194.805 355.216 194.652 354.828 194.47Z" fill-rule="nonzero" stroke="rgb(27.7894,24.3844,108.375)" stroke-linecap="round" stroke-linejoin="round" stroke-width="3.29924655" />
			<path id="Vector" d="M347.791 183.981C347.486 184.3 347.236 184.559 347.236 184.559C347.236 184.559 347.486 184.3 347.791 183.981C348.096 183.661 348.346 183.403 348.346 183.403C348.346 183.403 348.096 183.661 347.791 183.981Z" fill-rule="nonzero" stroke="rgb(27.7894,24.3844,108.375)" stroke-linecap="round" stroke-linejoin="round" stroke-width="3.29924655" />
			<path id="Vector" d="M345.835 193.037C344.392 191.242 343.518 188.898 343.518 186.326C343.518 180.71 347.667 176.16 352.788 176.16C356.924 176.16 360.435 179.127 361.629 183.236" fill-rule="nonzero" stroke="rgb(27.7894,24.3844,108.375)" stroke-linecap="round" stroke-linejoin="round" stroke-width="3.29924655" />
		</g>
		<g id="Fish">
			<g id="Container 24x24">
				<path id="Vector" />
			</g>
			<g id="Layer 1">
				<path id="Vector" d="M83.8107 288.239C82.9192 288.022 81.9924 288.053 81.1147 288.329C80.2371 288.606 79.4365 289.119 78.7861 289.822C78.5105 290.134 78.3564 290.552 78.3564 290.986C78.3564 291.421 78.5105 291.838 78.7861 292.151L80.3684 293.947" fill-rule="nonzero" stroke="rgb(27.7894,24.3844,108.375)" stroke-linecap="round" stroke-linejoin="round" stroke-width="3.29924655" />
				<path id="Vector" d="M94.1632 299.791C94.3539 300.781 94.3167 301.807 94.0549 302.777C93.7932 303.747 93.3152 304.63 92.6642 305.347C92.5261 305.499 92.3618 305.621 92.1807 305.703C91.9997 305.786 91.8054 305.829 91.6093 305.829C91.4131 305.829 91.2189 305.786 91.0379 305.703C90.8568 305.621 90.6925 305.499 90.5544 305.347L88.9443 303.551" fill-rule="nonzero" stroke="rgb(27.7894,24.3844,108.375)" stroke-linecap="round" stroke-linejoin="round" stroke-width="3.29924655" />
				<path id="Vector" d="M81.466 303.913C82.0385 304.906 82.3418 306.057 82.3405 307.231C82.3401 308.024 82.1964 308.809 81.9177 309.541C81.6389 310.272 81.2307 310.936 80.7165 311.493C80.6195 311.589 80.4934 311.643 80.3626 311.643C80.2318 311.643 80.1056 311.589 80.0086 311.493C79.5546 310.989 79.192 310.395 78.9399 309.743C78.7104 309.266 78.5511 308.752 78.468 308.221C78.4363 307.897 78.4363 307.57 78.468 307.247C78.7174 305.767 79.4053 304.418 80.425 303.411C79.4799 304.502 78.2383 305.228 76.8856 305.481C76.5902 305.512 76.2928 305.512 75.9973 305.481C75.5119 305.377 75.0438 305.192 74.6093 304.933C74.0119 304.622 73.4747 304.188 73.027 303.655C72.9392 303.548 72.8906 303.41 72.8906 303.266C72.8906 303.123 72.9392 302.985 73.027 302.878C74.0656 301.765 75.4608 301.142 76.9134 301.143C77.9786 301.151 79.0194 301.494 79.9115 302.132" fill-rule="nonzero" stroke="rgb(27.7894,24.3844,108.375)" stroke-linecap="round" stroke-linejoin="round" stroke-width="3.29924655" />
				<path id="Vector" d="M96.8288 284.328C96.2579 283.929 95.6202 283.659 94.953 283.533C94.2858 283.408 93.6024 283.43 92.943 283.597C91.3843 283.856 89.8803 284.417 88.5019 285.256C85.9102 286.629 83.7328 288.789 82.229 291.481C80.8955 294.186 80.141 297.189 80.0224 300.262C80.0224 300.475 79.7865 302.073 79.9391 302.179L81.4796 303.914C81.5767 304.082 83.0201 303.914 83.2144 303.838C86.0303 303.758 88.7906 302.96 91.2776 301.51C93.7448 299.912 95.7322 297.558 96.9954 294.737C98.2167 291.952 99.6045 287.524 97.384 284.876C97.2196 284.669 97.0332 284.485 96.8288 284.328Z" fill-rule="nonzero" stroke="rgb(27.7894,24.3844,108.375)" stroke-linecap="round" stroke-linejoin="round" stroke-width="3.29924655" />
				<path id="Vector" d="M87.7256 286.641C88.2885 288.718 89.3031 290.614 90.682 292.166C92.0668 293.714 93.7783 294.865 95.6649 295.515" fill-rule="nonzero" stroke="rgb(27.7894,24.3844,108.375)" stroke-linecap="round" stroke-linejoin="round" stroke-width="3.29924655" />
				<path id="Vector" d="M93.7188 286.687C93.5894 286.54 93.4342 286.422 93.2625 286.342C93.0908 286.262 92.9062 286.221 92.7197 286.221C92.5332 286.221 92.3485 286.262 92.1769 286.342C92.0052 286.422 91.85 286.54 91.7206 286.687C91.5316 286.902 91.4045 287.173 91.3551 287.467C91.3057 287.76 91.3361 288.063 91.4426 288.338C91.5491 288.613 91.727 288.847 91.9541 289.012C92.1812 289.177 92.4474 289.265 92.7197 289.265C92.992 289.265 93.2582 289.177 93.4853 289.012C93.7124 288.847 93.8903 288.613 93.9968 288.338C94.1033 288.063 94.1337 287.76 94.0843 287.467C94.0349 287.173 93.9078 286.902 93.7188 286.687Z" fill="rgb(32,29,103)" fill-rule="nonzero" />
			</g>
		</g>
		<g id="Fish">
			<g id="Container 24x24">
				<path id="Vector" />
			</g>
			<g id="Layer 1">
				<path id="Vector" d="M552.869 129.164C551.978 128.947 551.051 128.978 550.173 129.254C549.296 129.531 548.495 130.044 547.845 130.747C547.569 131.059 547.415 131.476 547.415 131.911C547.415 132.346 547.569 132.763 547.845 133.075L549.427 134.871" fill-rule="nonzero" stroke="rgb(27.7894,24.3844,108.375)" stroke-linecap="round" stroke-linejoin="round" stroke-width="3.29924655" />
				<path id="Vector" d="M563.221 140.714C563.411 141.704 563.374 142.73 563.113 143.7C562.851 144.67 562.373 145.553 561.722 146.27C561.584 146.423 561.419 146.544 561.238 146.627C561.057 146.71 560.863 146.752 560.667 146.752C560.471 146.752 560.277 146.71 560.095 146.627C559.914 146.544 559.75 146.423 559.612 146.27L558.002 144.474" fill-rule="nonzero" stroke="rgb(27.7894,24.3844,108.375)" stroke-linecap="round" stroke-linejoin="round" stroke-width="3.29924655" />
				<path id="Vector" d="M550.525 144.838C551.097 145.831 551.4 146.982 551.399 148.156C551.399 148.949 551.255 149.734 550.976 150.465C550.698 151.197 550.289 151.861 549.775 152.418C549.678 152.514 549.552 152.568 549.421 152.568C549.29 152.568 549.164 152.514 549.067 152.418C548.613 151.914 548.251 151.32 547.998 150.668C547.769 150.191 547.61 149.677 547.527 149.146C547.495 148.822 547.495 148.495 547.527 148.171C547.776 146.691 548.464 145.343 549.484 144.336C548.538 145.427 547.297 146.153 545.944 146.406C545.649 146.437 545.351 146.437 545.056 146.406C544.57 146.302 544.102 146.117 543.668 145.858C543.07 145.547 542.533 145.113 542.086 144.579C541.998 144.473 541.949 144.335 541.949 144.191C541.949 144.048 541.998 143.909 542.086 143.803C543.124 142.689 544.519 142.066 545.972 142.068C547.037 142.075 548.078 142.419 548.97 143.057" fill-rule="nonzero" stroke="rgb(27.7894,24.3844,108.375)" stroke-linecap="round" stroke-linejoin="round" stroke-width="3.29924655" />
				<path id="Vector" d="M565.886 125.252C565.316 124.853 564.678 124.583 564.011 124.458C563.343 124.332 562.66 124.354 562.001 124.522C560.442 124.78 558.938 125.342 557.56 126.18C554.968 127.553 552.79 129.714 551.287 132.405C549.953 135.111 549.199 138.113 549.08 141.186C549.08 141.399 548.844 142.997 548.997 143.104L550.537 144.839C550.634 145.006 552.078 144.839 552.272 144.763C555.088 144.682 557.848 143.885 560.335 142.434C562.802 140.836 564.79 138.482 566.053 135.662C567.274 132.877 568.662 128.448 566.442 125.8C566.277 125.594 566.091 125.41 565.886 125.252Z" fill-rule="nonzero" stroke="rgb(27.7894,24.3844,108.375)" stroke-linecap="round" stroke-linejoin="round" stroke-width="3.29924655" />
				<path id="Vector" d="M556.785 127.565C557.348 129.642 558.363 131.538 559.742 133.09C561.126 134.638 562.838 135.788 564.724 136.439" fill-rule="nonzero" stroke="rgb(27.7894,24.3844,108.375)" stroke-linecap="round" stroke-linejoin="round" stroke-width="3.29924655" />
				<path id="Vector" d="M562.776 127.611C562.647 127.463 562.492 127.346 562.32 127.266C562.148 127.186 561.964 127.145 561.777 127.145C561.591 127.145 561.406 127.186 561.234 127.266C561.063 127.346 560.908 127.463 560.778 127.611C560.589 127.826 560.462 128.097 560.413 128.39C560.363 128.684 560.394 128.987 560.5 129.262C560.607 129.537 560.785 129.771 561.012 129.936C561.239 130.101 561.505 130.188 561.777 130.188C562.05 130.188 562.316 130.101 562.543 129.936C562.77 129.771 562.948 129.537 563.054 129.262C563.161 128.987 563.191 128.684 563.142 128.39C563.092 128.097 562.965 127.826 562.776 127.611Z" fill="rgb(32,29,103)" fill-rule="nonzero" />
			</g>
		</g>
		<g id="Fish">
			<g id="Container 24x24">
				<path id="Vector" />
			</g>
			<g id="Layer 1">
				<path id="Vector" d="M509.249 302.456C508.358 302.239 507.431 302.27 506.553 302.547C505.676 302.823 504.875 303.336 504.225 304.039C503.949 304.351 503.795 304.769 503.795 305.204C503.795 305.638 503.949 306.056 504.225 306.368L505.807 308.164" fill-rule="nonzero" stroke="rgb(27.7894,24.3844,108.375)" stroke-linecap="round" stroke-linejoin="round" stroke-width="3.29924655" />
				<path id="Vector" d="M519.601 314.007C519.791 314.997 519.754 316.023 519.492 316.993C519.231 317.963 518.753 318.846 518.102 319.562C517.964 319.715 517.799 319.836 517.618 319.919C517.437 320.002 517.243 320.045 517.047 320.045C516.851 320.045 516.656 320.002 516.475 319.919C516.294 319.836 516.13 319.715 515.992 319.562L514.382 317.766" fill-rule="nonzero" stroke="rgb(27.7894,24.3844,108.375)" stroke-linecap="round" stroke-linejoin="round" stroke-width="3.29924655" />
				<path id="Vector" d="M506.904 318.132C507.476 319.124 507.779 320.275 507.778 321.45C507.778 322.242 507.634 323.027 507.355 323.759C507.076 324.49 506.668 325.154 506.154 325.711C506.057 325.808 505.931 325.861 505.8 325.861C505.669 325.861 505.543 325.808 505.446 325.711C504.992 325.207 504.629 324.613 504.377 323.961C504.148 323.484 503.989 322.97 503.905 322.439C503.874 322.115 503.874 321.789 503.905 321.465C504.155 319.985 504.843 318.637 505.863 317.629C504.917 318.72 503.676 319.446 502.323 319.699C502.028 319.73 501.73 319.73 501.435 319.699C500.949 319.595 500.481 319.411 500.047 319.151C499.449 318.84 498.912 318.406 498.465 317.873C498.377 317.766 498.328 317.628 498.328 317.485C498.328 317.341 498.377 317.203 498.465 317.096C499.503 315.983 500.898 315.36 502.351 315.361C503.416 315.369 504.457 315.712 505.349 316.351" fill-rule="nonzero" stroke="rgb(27.7894,24.3844,108.375)" stroke-linecap="round" stroke-linejoin="round" stroke-width="3.29924655" />
				<path id="Vector" d="M522.266 298.545C521.695 298.146 521.058 297.876 520.391 297.751C519.723 297.625 519.04 297.647 518.38 297.814C516.822 298.073 515.318 298.635 513.939 299.473C511.348 300.846 509.17 303.007 507.667 305.698C506.333 308.404 505.578 311.406 505.46 314.479C505.46 314.692 505.224 316.29 505.377 316.397L506.917 318.132C507.014 318.299 508.458 318.132 508.652 318.056C511.468 317.975 514.228 317.178 516.715 315.727C519.182 314.129 521.17 311.775 522.433 308.955C523.654 306.17 525.042 301.741 522.821 299.093C522.657 298.887 522.471 298.703 522.266 298.545Z" fill-rule="nonzero" stroke="rgb(27.7894,24.3844,108.375)" stroke-linecap="round" stroke-linejoin="round" stroke-width="3.29924655" />
				<path id="Vector" d="M513.163 300.857C513.726 302.935 514.741 304.831 516.12 306.383C517.504 307.931 519.216 309.081 521.102 309.731" fill-rule="nonzero" stroke="rgb(27.7894,24.3844,108.375)" stroke-linecap="round" stroke-linejoin="round" stroke-width="3.29924655" />
				<path id="Vector" d="M519.157 300.903C519.028 300.756 518.873 300.639 518.701 300.559C518.529 300.479 518.345 300.438 518.158 300.438C517.972 300.438 517.787 300.479 517.615 300.559C517.444 300.639 517.289 300.756 517.159 300.903C516.97 301.118 516.843 301.389 516.794 301.683C516.744 301.977 516.775 302.28 516.881 302.554C516.988 302.829 517.165 303.064 517.393 303.228C517.62 303.393 517.886 303.481 518.158 303.481C518.43 303.481 518.697 303.393 518.924 303.228C519.151 303.064 519.329 302.829 519.435 302.554C519.542 302.28 519.572 301.977 519.523 301.683C519.473 301.389 519.346 301.118 519.157 300.903Z" fill="rgb(32,29,103)" fill-rule="nonzero" />
			</g>
		</g>
		<g id="Ice Cream">
			<path id="Vector" />
			<g id="Group">
				<g id="Group">
					<path id="Vector" d="M224.354 290.871L230.057 308.083L235.761 290.871" fill-rule="nonzero" stroke="rgb(27.7894,24.3844,108.375)" stroke-linecap="round" stroke-linejoin="round" stroke-width="3.29924655" />
					<g id="Group">
						<path id="Vector" d="M238.621 290.095C238.385 290.095 238.177 290.11 237.982 290.141C236.456 290.415 236.248 291.663 234.332 291.663C232.181 291.663 232.181 290.095 230.058 290.095C227.907 290.095 227.907 291.663 225.783 291.663C223.868 291.663 223.674 290.43 222.134 290.141C221.953 290.11 221.731 290.095 221.495 290.095" fill-rule="nonzero" stroke="rgb(27.7894,24.3844,108.375)" stroke-linecap="round" stroke-linejoin="round" stroke-width="3.29924655" />
						<path id="Vector" d="M236.844 290.142C235.526 290.416 235.359 291.664 233.721 291.664C231.875 291.664 231.875 290.096 230.057 290.096C228.211 290.096 228.211 291.664 226.393 291.664C224.755 291.664 224.575 290.431 223.27 290.142C223.048 289.396 222.923 288.574 222.923 287.752C222.923 283.43 226.115 279.929 230.057 279.929C233.999 279.929 237.191 283.43 237.191 287.752C237.191 288.574 237.08 289.396 236.844 290.142Z" fill-rule="nonzero" stroke="rgb(27.7894,24.3844,108.375)" stroke-linecap="round" stroke-linejoin="round" stroke-width="3.29924655" />
					</g>
					<path id="Vector" d="M237.196 292.438L222.928 292.438" stroke="rgb(27.7894,24.3844,108.375)" stroke-linecap="round" stroke-linejoin="round" stroke-width="3.29924655" />
				</g>
			</g>
		</g>
		<g id="Ice Cream">
			<path id="Vector" />
			<g id="Group">
				<g id="Group">
					<path id="Vector" d="M597.258 327.113L602.962 344.325L608.666 327.113" fill-rule="nonzero" stroke="rgb(27.7894,24.3844,108.375)" stroke-linecap="round" stroke-linejoin="round" stroke-width="3.29924655" />
					<g id="Group">
						<path id="Vector" d="M611.523 326.336C611.287 326.336 611.079 326.352 610.885 326.382C609.358 326.656 609.15 327.904 607.235 327.904C605.084 327.904 605.084 326.336 602.96 326.336C600.809 326.336 600.809 327.904 598.686 327.904C596.771 327.904 596.576 326.671 595.036 326.382C594.855 326.352 594.633 326.336 594.397 326.336" fill-rule="nonzero" stroke="rgb(27.7894,24.3844,108.375)" stroke-linecap="round" stroke-linejoin="round" stroke-width="3.29924655" />
						<path id="Vector" d="M609.75 326.384C608.431 326.658 608.265 327.906 606.627 327.906C604.781 327.906 604.781 326.338 602.962 326.338C601.116 326.338 601.116 327.906 599.298 327.906C597.66 327.906 597.48 326.673 596.175 326.384C595.953 325.638 595.828 324.816 595.828 323.994C595.828 319.671 599.021 316.17 602.962 316.17C606.904 316.17 610.097 319.671 610.097 323.994C610.097 324.816 609.986 325.638 609.75 326.384Z" fill-rule="nonzero" stroke="rgb(27.7894,24.3844,108.375)" stroke-linecap="round" stroke-linejoin="round" stroke-width="3.29924655" />
					</g>
					<path id="Vector" d="M610.098 328.679L595.829 328.679" stroke="rgb(27.7894,24.3844,108.375)" stroke-linecap="round" stroke-linejoin="round" stroke-width="3.29924655" />
				</g>
			</g>
		</g>
		<g id="Breakfast Bowl">
			<path id="Vector" />
			<g id="Group">
				<g id="Group">
					<path id="Vector" d="M371.203 299.871L371.203 301.484L360.932 301.484L360.932 299.871L371.203 299.871Z" stroke="rgb(27.7894,24.3844,108.375)" stroke-linecap="round" stroke-linejoin="round" stroke-width="3.29924655" />
					<path id="Vector" d="M378.864 288.976C377.407 295.23 372.23 299.857 366.068 299.857C359.906 299.857 354.73 295.23 353.273 288.976C353.037 287.971 353.758 286.997 354.716 286.997L377.421 286.997C378.364 286.997 379.086 287.971 378.864 288.976Z" fill-rule="nonzero" stroke="rgb(27.7894,24.3844,108.375)" stroke-linecap="round" stroke-linejoin="round" stroke-width="3.29924655" />
				</g>
				<g id="Group">
					<path id="Vector" d="M360.533 286.996C358.916 286.996 357.604 285.559 357.604 283.785C357.604 282.011 358.916 280.573 360.533 280.573C362.151 280.573 363.462 282.011 363.462 283.785C363.462 285.559 362.151 286.996 360.533 286.996Z" stroke="rgb(27.7894,24.3844,108.375)" stroke-linecap="round" stroke-linejoin="round" stroke-width="3.29924655" />
					<path id="Vector" d="M371.609 286.753C369.992 286.753 368.681 285.315 368.681 283.542C368.681 281.768 369.992 280.33 371.609 280.33C373.227 280.33 374.538 281.768 374.538 283.542C374.538 285.315 373.227 286.753 371.609 286.753Z" stroke="rgb(27.7894,24.3844,108.375)" stroke-linecap="round" stroke-linejoin="round" stroke-width="3.29924655" />
					<path id="Vector" d="M366.529 286.767C365.31 286.767 364.322 285.684 364.322 284.347C364.322 283.011 365.31 281.927 366.529 281.927C367.748 281.927 368.736 283.011 368.736 284.347C368.736 285.684 367.748 286.767 366.529 286.767Z" stroke="rgb(27.7894,24.3844,108.375)" stroke-linecap="round" stroke-linejoin="round" stroke-width="3.29924655" />
				</g>
				<path id="Vector" d="M358.934 280.788L354.326 275.735" stroke="rgb(27.7894,24.3844,108.375)" stroke-linecap="round" stroke-linejoin="round" stroke-width="3.29924655" />
				<path id="Vector" d="M355.076 291.791L377.059 291.791" stroke="rgb(27.7894,24.3844,108.375)" stroke-linecap="round" stroke-linejoin="round" stroke-width="3.29924655" />
			</g>
		</g>
		<g id="Serving Plate">
			<path id="Vector" />
			<g id="Group">
				<path id="Vector" d="M286.963 245.025C286.963 247.551 288.823 249.591 291.126 249.591L307.78 249.591C310.084 249.591 311.944 247.551 311.944 245.025L286.963 245.025Z" fill-rule="nonzero" stroke="rgb(27.7894,24.3844,108.375)" stroke-linecap="round" stroke-linejoin="round" stroke-width="3.29924655" />
				<path id="Vector" d="M288.35 243.502L288.35 245.024L310.555 245.024L310.555 243.502C310.555 236.775 305.586 231.327 299.452 231.327C293.318 231.327 288.35 236.775 288.35 243.502Z" fill-rule="nonzero" stroke="rgb(27.7894,24.3844,108.375)" stroke-linecap="round" stroke-linejoin="round" stroke-width="3.29924655" />
				<path id="Vector" d="M299.453 232.47C300.795 232.47 301.882 231.277 301.882 229.806C301.882 228.335 300.795 227.143 299.453 227.143C298.112 227.143 297.024 228.335 297.024 229.806C297.024 231.277 298.112 232.47 299.453 232.47Z" fill="rgb(32,29,103)" fill-rule="evenodd" />
			</g>
		</g>
		<g id="Pizza Slice">
			<path id="Vector" />
			<path id="Vector" d="M209.234 189.901C213.079 190.16 216.923 192.001 219.962 195.38C222.974 198.728 224.625 202.989 224.875 207.25" fill-rule="nonzero" stroke="rgb(27.7894,24.3844,108.375)" stroke-linecap="round" stroke-linejoin="round" stroke-width="3.29924655" />
			<path id="Vector" d="M224.75 208.696L207.43 213.337C205.099 213.961 203.059 211.678 203.642 209.091L204.863 203.612L204.946 203.262L206.015 198.499L206.112 198.042L207.916 190.052L208.36 188.104C208.777 186.233 210.428 185.03 212.121 185.335C216.285 186.08 220.198 188.181 223.321 191.65C226.43 195.09 228.303 199.427 228.983 204.039C229.261 205.926 228.15 207.782 226.457 208.239L224.75 208.696Z" fill-rule="nonzero" stroke="rgb(27.7894,24.3844,108.375)" stroke-linecap="round" stroke-linejoin="round" stroke-width="3.29924655" />
			<path id="Vector" d="M215.991 203.372C214.765 203.372 213.771 202.268 213.771 200.907C213.771 199.545 214.765 198.441 215.991 198.441C217.218 198.441 218.212 199.545 218.212 200.907C218.212 202.268 217.218 203.372 215.991 203.372Z" stroke="rgb(27.7894,24.3844,108.375)" stroke-linecap="round" stroke-linejoin="round" stroke-width="3.29924655" />
			<path id="Vector" d="M204.946 203.233L206.334 197.023C206.862 197.16 207.361 197.434 207.778 197.891C208.916 199.154 208.916 201.193 207.778 202.442C207.014 203.294 205.918 203.568 204.946 203.233Z" fill-rule="nonzero" stroke="rgb(27.7894,24.3844,108.375)" stroke-linecap="round" stroke-linejoin="round" stroke-width="3.29924655" />
			<path id="Vector" d="M209.524 211.118C209.315 210.236 209.524 209.261 210.134 208.577C211.064 207.542 212.563 207.542 213.493 208.577C213.799 208.911 214.007 209.322 214.104 209.764" fill-rule="nonzero" stroke="rgb(27.7894,24.3844,108.375)" stroke-linecap="round" stroke-linejoin="round" stroke-width="3.29924655" />
		</g>
		<g id="Pizza Slice">
			<path id="Vector" />
			<path id="Vector" d="M609.938 180.396C613.783 180.654 617.627 182.496 620.666 185.874C623.678 189.222 625.329 193.484 625.579 197.745" fill-rule="nonzero" stroke="rgb(27.7894,24.3844,108.375)" stroke-linecap="round" stroke-linejoin="round" stroke-width="3.29924655" />
			<path id="Vector" d="M625.456 199.191L608.136 203.832C605.805 204.456 603.765 202.174 604.348 199.586L605.569 194.108L605.652 193.758L606.721 188.994L606.818 188.537L608.622 180.548L609.066 178.6C609.483 176.728 611.134 175.525 612.827 175.83C616.991 176.575 620.904 178.676 624.027 182.146C627.136 185.585 629.009 189.922 629.689 194.534C629.967 196.421 628.857 198.278 627.163 198.734L625.456 199.191Z" fill-rule="nonzero" stroke="rgb(27.7894,24.3844,108.375)" stroke-linecap="round" stroke-linejoin="round" stroke-width="3.29924655" />
			<path id="Vector" d="M616.699 193.866C615.473 193.866 614.479 192.762 614.479 191.4C614.479 190.038 615.473 188.934 616.699 188.934C617.926 188.934 618.92 190.038 618.92 191.4C618.92 192.762 617.926 193.866 616.699 193.866Z" stroke="rgb(27.7894,24.3844,108.375)" stroke-linecap="round" stroke-linejoin="round" stroke-width="3.29924655" />
			<path id="Vector" d="M605.651 193.727L607.039 187.517C607.567 187.654 608.066 187.928 608.483 188.385C609.621 189.648 609.621 191.688 608.483 192.936C607.719 193.788 606.623 194.062 605.651 193.727Z" fill-rule="nonzero" stroke="rgb(27.7894,24.3844,108.375)" stroke-linecap="round" stroke-linejoin="round" stroke-width="3.29924655" />
			<path id="Vector" d="M610.231 201.612C610.022 200.729 610.231 199.755 610.841 199.07C611.771 198.035 613.27 198.035 614.2 199.07C614.506 199.405 614.714 199.816 614.811 200.257" fill-rule="nonzero" stroke="rgb(27.7894,24.3844,108.375)" stroke-linecap="round" stroke-linejoin="round" stroke-width="3.29924655" />
		</g>
		<g id="Hot Dog">
			<path id="Vector" />
			<g id="Group">
				<path id="Vector" d="M142.506 261.992C140.993 263.651 140.993 266.329 142.506 267.988C144.018 269.647 146.461 269.647 147.974 267.988L162.185 252.404C163.698 250.745 163.698 248.067 162.185 246.408C160.672 244.749 158.23 244.749 156.717 246.408L142.506 261.992Z" fill-rule="nonzero" stroke="rgb(27.7894,24.3844,108.375)" stroke-linecap="round" stroke-linejoin="round" stroke-width="3.29924655" />
				<g id="Group">
					<path id="Vector" d="M145.488 264.064C147.126 262.268 147.709 262.907 149.361 261.111C150.999 259.315 150.416 258.676 152.053 256.864C153.691 255.068 154.288 255.708 155.926 253.912C157.564 252.116 156.981 251.461 158.619 249.665" fill-rule="nonzero" stroke="rgb(27.7894,24.3844,108.375)" stroke-linecap="round" stroke-linejoin="round" stroke-width="3.29924655" />
				</g>
				<path id="Vector" d="M140.866 256.603C139.048 258.596 139.048 261.807 140.866 263.801L158.353 244.625C156.549 242.616 153.607 242.616 151.802 244.61L140.866 256.603Z" fill-rule="nonzero" stroke="rgb(27.7894,24.3844,108.375)" stroke-linecap="round" stroke-linejoin="round" stroke-width="3.29924655" />
				<path id="Vector" d="M163.822 257.789C165.64 255.795 165.64 252.584 163.822 250.59L146.336 269.766C148.14 271.775 151.082 271.775 152.886 269.781L163.822 257.789Z" fill-rule="nonzero" stroke="rgb(27.7894,24.3844,108.375)" stroke-linecap="round" stroke-linejoin="round" stroke-width="3.29924655" />
			</g>
		</g>
		<g id="Hot Dog">
			<path id="Vector" />
			<g id="Group">
				<path id="Vector" d="M608.467 80.8893C606.954 82.5481 606.954 85.2266 608.467 86.8855C609.979 88.5444 612.422 88.5444 613.935 86.8855L628.146 71.3014C629.659 69.6425 629.659 66.964 628.146 65.3052C626.633 63.6463 624.191 63.6463 622.678 65.3052L608.467 80.8893Z" fill-rule="nonzero" stroke="rgb(27.7894,24.3844,108.375)" stroke-linecap="round" stroke-linejoin="round" stroke-width="3.29924655" />
				<g id="Group">
					<path id="Vector" d="M611.448 82.9609C613.086 81.1648 613.669 81.8041 615.321 80.0081C616.959 78.212 616.376 77.5727 618.013 75.7615C619.651 73.9654 620.248 74.6047 621.886 72.8086C623.524 71.0126 622.941 70.3581 624.579 68.562" fill-rule="nonzero" stroke="rgb(27.7894,24.3844,108.375)" stroke-linecap="round" stroke-linejoin="round" stroke-width="3.29924655" />
				</g>
				<path id="Vector" d="M606.827 75.5024C605.009 77.4961 605.009 80.7072 606.827 82.7009L624.314 63.5252C622.51 61.5163 619.568 61.5163 617.763 63.51L606.827 75.5024Z" fill-rule="nonzero" stroke="rgb(27.7894,24.3844,108.375)" stroke-linecap="round" stroke-linejoin="round" stroke-width="3.29924655" />
				<path id="Vector" d="M629.783 76.6873C631.601 74.6936 631.601 71.4824 629.783 69.4888L612.297 88.6645C614.101 90.6734 617.043 90.6734 618.847 88.6797L629.783 76.6873Z" fill-rule="nonzero" stroke="rgb(27.7894,24.3844,108.375)" stroke-linecap="round" stroke-linejoin="round" stroke-width="3.29924655" />
			</g>
		</g>
		<g id="Hot Dog">
			<path id="Vector" />
			<g id="Group">
				<path id="Vector" d="M557.125 260.958C555.612 262.616 555.612 265.295 557.125 266.954C558.638 268.613 561.08 268.613 562.593 266.954L576.804 251.37C578.317 249.711 578.317 247.032 576.804 245.374C575.291 243.715 572.849 243.715 571.336 245.374L557.125 260.958Z" fill-rule="nonzero" stroke="rgb(27.7894,24.3844,108.375)" stroke-linecap="round" stroke-linejoin="round" stroke-width="3.29924655" />
				<g id="Group">
					<path id="Vector" d="M560.109 263.032C561.747 261.236 562.33 261.875 563.982 260.079C565.62 258.283 565.037 257.644 566.675 255.833C568.312 254.037 568.909 254.676 570.547 252.88C572.185 251.084 571.602 250.429 573.24 248.633" fill-rule="nonzero" stroke="rgb(27.7894,24.3844,108.375)" stroke-linecap="round" stroke-linejoin="round" stroke-width="3.29924655" />
				</g>
				<path id="Vector" d="M555.486 255.572C553.668 257.565 553.668 260.777 555.486 262.77L572.972 243.595C571.168 241.586 568.226 241.586 566.422 243.579L555.486 255.572Z" fill-rule="nonzero" stroke="rgb(27.7894,24.3844,108.375)" stroke-linecap="round" stroke-linejoin="round" stroke-width="3.29924655" />
				<path id="Vector" d="M578.442 256.758C580.26 254.764 580.26 251.553 578.442 249.559L560.955 268.735C562.759 270.744 565.701 270.744 567.506 268.75L578.442 256.758Z" fill-rule="nonzero" stroke="rgb(27.7894,24.3844,108.375)" stroke-linecap="round" stroke-linejoin="round" stroke-width="3.29924655" />
			</g>
		</g>
		<g id="Burger">
			<path id="Vector" />
			<g id="Group">
				<path id="Vector" d="M69.0772 211.877C66.6069 211.877 64.6084 209.685 64.6084 206.976L64.6084 204.054L87.4241 204.054L87.4241 206.976C87.4241 209.685 85.4257 211.877 82.9553 211.877L69.0772 211.877Z" fill-rule="nonzero" stroke="rgb(27.7894,24.3844,108.375)" stroke-linecap="round" stroke-linejoin="round" stroke-width="3.29924655" />
				<path id="Vector" d="M65.3179 199.364C64.1383 199.364 63.1807 200.414 63.1807 201.708C63.1807 203.002 64.1383 204.052 65.3179 204.052L86.718 204.052C87.8977 204.052 88.8553 203.002 88.8553 201.708C88.8553 200.414 87.8977 199.364 86.718 199.364L65.3179 199.364Z" fill-rule="nonzero" stroke="rgb(27.7894,24.3844,108.375)" stroke-linecap="round" stroke-linejoin="round" stroke-width="3.29924655" />
				<path id="Vector" d="M75.2807 186.856C69.3825 186.856 64.6084 192.091 64.6084 198.559L64.6084 199.366L87.4241 199.366L87.4241 198.559C87.4241 192.091 82.65 186.856 76.7518 186.856L75.2807 186.856Z" fill-rule="nonzero" stroke="rgb(27.7894,24.3844,108.375)" stroke-linecap="round" stroke-linejoin="round" stroke-width="3.29924655" />
				<g id="Group">
					<path id="Vector" d="M64.458 204.432C64.9992 205.071 65.3877 205.939 66.4007 205.939C67.4137 205.939 67.8023 205.071 68.3435 204.432" fill-rule="nonzero" stroke="rgb(27.7894,24.3844,108.375)" stroke-linecap="round" stroke-linejoin="round" stroke-width="3.29924655" />
					<path id="Vector" d="M77.4912 204.432C78.0324 205.071 78.4209 205.939 79.4339 205.939C80.4608 205.939 80.8493 205.071 81.3905 204.432" fill-rule="nonzero" stroke="rgb(27.7894,24.3844,108.375)" stroke-linecap="round" stroke-linejoin="round" stroke-width="3.29924655" />
					<path id="Vector" d="M85.9714 205.923C84.9587 205.923 84.5703 205.056 84.0293 204.417" fill-rule="nonzero" stroke="rgb(27.7894,24.3844,108.375)" stroke-linecap="round" stroke-linejoin="round" stroke-width="3.29924655" />
					<path id="Vector" d="M70.9824 204.432C71.5236 205.071 71.9122 205.939 72.9251 205.939C73.9381 205.939 74.3267 205.071 74.8679 204.432" fill-rule="nonzero" stroke="rgb(27.7894,24.3844,108.375)" stroke-linecap="round" stroke-linejoin="round" stroke-width="3.29924655" />
				</g>
			</g>
		</g>
		<g id="Burger">
			<path id="Vector" />
			<g id="Group">
				<path id="Vector" d="M545.856 30.7741C543.386 30.7741 541.388 28.5826 541.388 25.8737L541.388 22.9517L564.203 22.9517L564.203 25.8737C564.203 28.5826 562.205 30.7741 559.735 30.7741L545.856 30.7741Z" fill-rule="nonzero" stroke="rgb(27.7894,24.3844,108.375)" stroke-linecap="round" stroke-linejoin="round" stroke-width="3.29924655" />
				<path id="Vector" d="M542.098 18.2627C540.919 18.2627 539.961 19.3128 539.961 20.6064C539.961 21.9 540.919 22.9501 542.098 22.9501L563.498 22.9501C564.678 22.9501 565.636 21.9 565.636 20.6064C565.636 19.3128 564.678 18.2627 563.498 18.2627L542.098 18.2627Z" fill-rule="nonzero" stroke="rgb(27.7894,24.3844,108.375)" stroke-linecap="round" stroke-linejoin="round" stroke-width="3.29924655" />
				<path id="Vector" d="M552.06 5.75342C546.162 5.75342 541.388 10.9887 541.388 17.4567L541.388 18.2633L564.203 18.2633L564.203 17.4567C564.203 10.9887 559.429 5.75342 553.531 5.75342L552.06 5.75342Z" fill-rule="nonzero" stroke="rgb(27.7894,24.3844,108.375)" stroke-linecap="round" stroke-linejoin="round" stroke-width="3.29924655" />
				<g id="Group">
					<path id="Vector" d="M541.239 23.332C541.78 23.9712 542.169 24.8385 543.182 24.8385C544.195 24.8385 544.583 23.9712 545.125 23.332" fill-rule="nonzero" stroke="rgb(27.7894,24.3844,108.375)" stroke-linecap="round" stroke-linejoin="round" stroke-width="3.29924655" />
					<path id="Vector" d="M554.27 23.332C554.811 23.9712 555.199 24.8385 556.212 24.8385C557.239 24.8385 557.628 23.9712 558.169 23.332" fill-rule="nonzero" stroke="rgb(27.7894,24.3844,108.375)" stroke-linecap="round" stroke-linejoin="round" stroke-width="3.29924655" />
					<path id="Vector" d="M562.752 24.8234C561.739 24.8234 561.351 23.9563 560.81 23.3174" fill-rule="nonzero" stroke="rgb(27.7894,24.3844,108.375)" stroke-linecap="round" stroke-linejoin="round" stroke-width="3.29924655" />
					<path id="Vector" d="M547.762 23.332C548.303 23.9712 548.691 24.8385 549.704 24.8385C550.717 24.8385 551.106 23.9712 551.647 23.332" fill-rule="nonzero" stroke="rgb(27.7894,24.3844,108.375)" stroke-linecap="round" stroke-linejoin="round" stroke-width="3.29924655" />
				</g>
			</g>
		</g>
		<g id="Burger">
			<path id="Vector" />
			<g id="Group">
				<path id="Vector" d="M494.505 221.009C492.035 221.009 490.036 218.817 490.036 216.108L490.036 213.186L512.852 213.186L512.852 216.108C512.852 218.817 510.853 221.009 508.383 221.009L494.505 221.009Z" fill-rule="nonzero" stroke="rgb(27.7894,24.3844,108.375)" stroke-linecap="round" stroke-linejoin="round" stroke-width="3.29924655" />
				<path id="Vector" d="M490.746 208.499C489.566 208.499 488.608 209.549 488.608 210.842C488.608 212.136 489.566 213.186 490.746 213.186L512.146 213.186C513.325 213.186 514.283 212.136 514.283 210.842C514.283 209.549 513.325 208.499 512.146 208.499L490.746 208.499Z" fill-rule="nonzero" stroke="rgb(27.7894,24.3844,108.375)" stroke-linecap="round" stroke-linejoin="round" stroke-width="3.29924655" />
				<path id="Vector" d="M500.708 195.988C494.81 195.988 490.036 201.224 490.036 207.692L490.036 208.498L512.852 208.498L512.852 207.692C512.852 201.224 508.078 195.988 502.18 195.988L500.708 195.988Z" fill-rule="nonzero" stroke="rgb(27.7894,24.3844,108.375)" stroke-linecap="round" stroke-linejoin="round" stroke-width="3.29924655" />
				<g id="Group">
					<path id="Vector" d="M489.884 213.567C490.425 214.206 490.814 215.073 491.827 215.073C492.84 215.073 493.228 214.206 493.769 213.567" fill-rule="nonzero" stroke="rgb(27.7894,24.3844,108.375)" stroke-linecap="round" stroke-linejoin="round" stroke-width="3.29924655" />
					<path id="Vector" d="M502.914 213.567C503.455 214.206 503.844 215.073 504.857 215.073C505.884 215.073 506.272 214.206 506.813 213.567" fill-rule="nonzero" stroke="rgb(27.7894,24.3844,108.375)" stroke-linecap="round" stroke-linejoin="round" stroke-width="3.29924655" />
					<path id="Vector" d="M511.395 215.057C510.383 215.057 509.994 214.19 509.453 213.551" fill-rule="nonzero" stroke="rgb(27.7894,24.3844,108.375)" stroke-linecap="round" stroke-linejoin="round" stroke-width="3.29924655" />
					<path id="Vector" d="M496.405 213.567C496.946 214.206 497.335 215.073 498.348 215.073C499.361 215.073 499.75 214.206 500.291 213.567" fill-rule="nonzero" stroke="rgb(27.7894,24.3844,108.375)" stroke-linecap="round" stroke-linejoin="round" stroke-width="3.29924655" />
				</g>
			</g>
		</g>
	</g>
</svg>
