<svg viewBox="0 0 17.8721 17.8721" xmlns="http://www.w3.org/2000/svg" xmlns:xlink="http://www.w3.org/1999/xlink" width="17.872070" height="17.872070" fill="none">
	<rect id="chevron-down" width="17.872103" height="17.872103" x="0.000000" y="0.000000" fill="rgb(255,255,255)" fill-opacity="0" />
	<path id="Vector" d="M4.46777 6.70215L8.9358 11.1702L13.4038 6.70215" fill="rgb(26,32,44)" fill-rule="nonzero" />
	<path id="Vector" d="M5.06016 6.10977C4.73299 5.7826 4.20255 5.7826 3.87539 6.10977C3.54823 6.43693 3.54823 6.96737 3.87539 7.29453L4.46777 6.70215L5.06016 6.10977ZM8.9358 11.1702L8.34342 11.7626C8.67058 12.0897 9.20102 12.0897 9.52818 11.7626L8.9358 11.1702ZM13.9962 7.29453C14.3234 6.96737 14.3234 6.43693 13.9962 6.10977C13.669 5.7826 13.1386 5.7826 12.8114 6.10977L13.4038 6.70215L13.9962 7.29453ZM4.46777 6.70215L3.87539 7.29453L8.34342 11.7626L8.9358 11.1702L9.52818 10.5778L5.06016 6.10977L4.46777 6.70215ZM8.9358 11.1702L9.52818 11.7626L13.9962 7.29453L13.4038 6.70215L12.8114 6.10977L8.34342 10.5778L8.9358 11.1702Z" fill-rule="nonzero" stroke="rgb(26,32,44)" stroke-linecap="round" stroke-linejoin="round" stroke-width="1.67550969" />
</svg>
