<svg viewBox="0 0 106.735 114.923" xmlns="http://www.w3.org/2000/svg" xmlns:xlink="http://www.w3.org/1999/xlink" width="106.735352" height="114.922852" fill="none" customFrame="#000000">
	<path id="Vector 14" d="M51.2451 0C51.2451 0 61.9505 16.5796 54.0599 30.1651C47.9805 40.6321 34.4822 47.2866 26.7138 41.0719C24.3428 39.1751 21.3064 33.5283 24.3428 29.2167C27.1862 25.179 31.9301 26.1679 34.7754 27.1618C46.6485 31.309 45.7005 48.0478 38.8852 58.6177C33.0247 67.7067 21.4127 73.8014 12.6456 67.4696C9.80033 65.4147 8.9044 62.2586 10.5907 58.6177C12.2341 55.0693 15.807 54.6659 19.6007 55.6143C32.9386 58.9488 31.3786 81.5285 22.9201 90.3897C16.2812 97.3448 0 98.2932 0 98.2932M7.90349 101.138L0 98.2932L6.32279 93.3931" stroke="rgb(108,95,188)" stroke-linecap="round" stroke-linejoin="round" stroke-width="1.73485887" transform="matrix(0.79368,-0.608336,0.608336,0.79368,0,34.6514)" />
</svg>
