<svg width="110" height="157" viewBox="0 0 110 157" fill="none"
     xmlns="http://www.w3.org/2000/svg">
    <rect x="-914" y="-0.0664062" width="1024" height="156.8" fill="#5C4EAE"/>
    <mask id="mask0_1_11127" style="mask-type:alpha" maskUnits="userSpaceOnUse"
          x="-914" y="-1" width="1024" height="158">
        <rect x="-914" y="-0.0664062" width="1024" height="156.8"
              fill="#201F1F"/>
    </mask>
    <g mask="url(#mask0_1_11127)">
        <path opacity="0.2"
              d="M197.148 -57.5571C180.452 -55.9984 162.319 -55.754 146.051 -52.1088C130.131 -48.5419 113.367 -42.0709 99.3605 -35.2365C73.5499 -22.642 60.3307 -5.01051 48.3376 16.0247C28.5456 50.739 21.3799 86.7438 21.0706 124.464C20.8659 149.435 21.8258 174.152 24.4323 199.042C25.2281 206.641 24.8304 215.328 30.4086 221.89"
              stroke="#A596FF" stroke-width="3.16355" stroke-linecap="round"/>
        <path opacity="0.2"
              d="M230.89 -39.6313C213.694 -38.0256 195.018 -37.7738 178.262 -34.0185C161.866 -30.344 144.6 -23.6776 130.174 -16.6369C103.591 -3.66223 89.9757 14.5016 77.6236 36.1718C57.2389 71.9341 49.8588 109.026 49.5402 147.885C49.3293 173.61 50.318 199.073 53.0025 224.714C53.8221 232.543 53.4125 241.492 59.1578 248.252"
              stroke="#A596FF" stroke-width="3.16355" stroke-linecap="round"/>
    </g>
</svg>
