<svg viewBox="0 0 15.9414 12.978" xmlns="http://www.w3.org/2000/svg" xmlns:xlink="http://www.w3.org/1999/xlink" width="15.941406" height="12.978027" fill="none" customFrame="#000000">
	<g id="Socials">
		<path id="Path 6" d="M14.0657 2.06296C14.7409 1.98795 15.341 1.8004 15.9412 1.53784C15.5286 2.17548 14.966 2.77563 14.3283 3.26323L14.3283 3.67582C14.3283 7.98928 11.0651 12.9779 5.02616 12.9779C3.15073 12.9779 1.46284 12.4528 0 11.5151C0.262562 11.5526 0.525121 11.5526 0.78768 11.5526C2.32553 11.5526 3.71336 11.0275 4.83861 10.1648C3.37578 10.1273 2.1755 9.18955 1.76291 7.87676C1.95045 7.91426 2.13799 7.95178 2.36304 7.95178C2.66312 7.95178 2.96318 7.91426 3.22575 7.83925C1.7254 7.53918 0.600137 6.18889 0.600137 4.61353L0.600137 4.57602C1.05024 4.83858 1.57536 4.98861 2.10049 4.98861C1.20028 4.38848 0.637646 3.37576 0.637646 2.2505C0.637646 1.65037 0.78768 1.08774 1.08775 0.600137C2.70062 2.58808 5.10118 3.86337 7.83931 4.0134C7.8018 3.78835 7.76429 3.52579 7.76429 3.26323C7.76429 1.46283 9.22713 0 11.0275 0C11.9653 0 12.828 0.41259 13.4281 1.05023C14.1408 0.9002 14.8534 0.637643 15.4911 0.262559C15.266 1.01273 14.7409 1.65037 14.0657 2.06296Z" fill="rgb(108,95,188)" fill-rule="evenodd" />
		<path id="Path 6" d="M15.9412 1.53784C15.5286 2.17548 14.966 2.77563 14.3283 3.26323L14.3283 3.67582C14.3283 7.98928 11.0651 12.9779 5.02616 12.9779C3.15073 12.9779 1.46284 12.4528 0 11.5151C0.262562 11.5526 0.525121 11.5526 0.78768 11.5526C2.32553 11.5526 3.71336 11.0275 4.83861 10.1648C3.37578 10.1273 2.1755 9.18955 1.76291 7.87676C1.95045 7.91426 2.13799 7.95178 2.36304 7.95178C2.66312 7.95178 2.96318 7.91426 3.22575 7.83925C1.7254 7.53918 0.600137 6.18889 0.600137 4.61353L0.600137 4.57602C1.05024 4.83858 1.57536 4.98861 2.10049 4.98861C1.20028 4.38848 0.637646 3.37576 0.637646 2.2505C0.637646 1.65037 0.78768 1.08774 1.08775 0.600137C2.70062 2.58808 5.10118 3.86337 7.83931 4.0134C7.8018 3.78835 7.76429 3.52579 7.76429 3.26323C7.76429 1.46283 9.22713 0 11.0275 0C11.9653 0 12.828 0.41259 13.4281 1.05023C14.1408 0.9002 14.8534 0.637643 15.4911 0.262559C15.266 1.01273 14.7409 1.65037 14.0657 2.06296C14.7409 1.98795 15.341 1.8004 15.9412 1.53784Z" fill-rule="evenodd" stroke="rgb(112,112,112)" stroke-opacity="0" stroke-width="0" />
	</g>
</svg>
