<svg viewBox="0 0 98.4824 24.1775" xmlns="http://www.w3.org/2000/svg"
     width="98.482422"
     height="24.177490" fill="none">
    <g id="trustpilot-1 1">
        <path id="Vector"
              d="M25.8856 8.56812L35.8486 8.56812L35.8486 10.4229L31.9258 10.4229L31.9258 20.8783L29.7756 20.8783L29.7756 10.4229L25.8691 10.4229L25.8856 8.56812ZM35.4219 11.9657L37.2602 11.9657L37.2602 13.6892L37.293 13.6892C37.3587 13.443 37.4736 13.2132 37.6377 12.9834C37.8018 12.7536 37.9988 12.5402 38.245 12.3597C38.4748 12.1627 38.7374 12.015 39.0329 11.9001C39.3119 11.7852 39.6073 11.7195 39.9028 11.7195C40.1326 11.7195 40.2967 11.7359 40.3788 11.7359C40.4608 11.7524 40.5593 11.7688 40.6414 11.7688L40.6414 13.6563C40.5101 13.6235 40.3624 13.6071 40.2146 13.5907C40.0669 13.5743 39.9356 13.5579 39.7879 13.5579C39.4596 13.5579 39.1478 13.6235 38.8523 13.7548C38.5569 13.8861 38.3107 14.0831 38.0809 14.3293C37.8675 14.5919 37.6869 14.9038 37.5556 15.2813C37.4243 15.6588 37.3587 16.102 37.3587 16.5944L37.3587 20.8291L35.389 20.8291L35.4219 11.9657ZM49.6689 20.8783L47.7321 20.8783L47.7321 19.6309L47.6992 19.6309C47.453 20.0905 47.0919 20.4352 46.6159 20.7142C46.14 20.9932 45.6475 21.1245 45.1551 21.1245C43.9898 21.1245 43.1363 20.8455 42.611 20.2546C42.0858 19.6801 41.8232 18.7938 41.8232 17.6284L41.8232 11.9657L43.7928 11.9657L43.7928 17.4315C43.7928 18.2193 43.9405 18.7774 44.2524 19.0892C44.5478 19.4175 44.9746 19.5816 45.5162 19.5816C45.9266 19.5816 46.2713 19.516 46.5503 19.3847C46.8293 19.2534 47.0591 19.0892 47.2233 18.8759C47.4038 18.6625 47.5187 18.3999 47.6008 18.1044C47.6828 17.809 47.7157 17.4807 47.7157 17.136L47.7157 11.9657L49.6853 11.9657L49.6853 20.8783L49.6689 20.8783ZM53.0173 18.0224C53.0829 18.5968 53.2963 18.9908 53.6738 19.237C54.0513 19.4668 54.5109 19.5816 55.0361 19.5816C55.2167 19.5816 55.4301 19.5652 55.6599 19.5324C55.8896 19.4996 56.1194 19.4503 56.3164 19.3683C56.5298 19.2862 56.6939 19.1713 56.8252 19.0072C56.9565 18.843 57.0222 18.6461 57.0058 18.3999C56.9893 18.1537 56.9073 17.9403 56.7267 17.7761C56.5462 17.612 56.3328 17.4971 56.0702 17.3822C55.8076 17.2837 55.4957 17.2017 55.151 17.136C54.8063 17.0704 54.4617 16.9883 54.1006 16.9062C53.7395 16.8242 53.3784 16.7257 53.0337 16.6108C52.689 16.4959 52.3935 16.3482 52.1145 16.1348C51.8519 15.9378 51.6221 15.6916 51.4744 15.3798C51.3102 15.0679 51.2282 14.7068 51.2282 14.2472C51.2282 13.7548 51.3431 13.3609 51.5893 13.0326C51.8191 12.7043 52.1309 12.4417 52.492 12.2448C52.8531 12.0478 53.2635 11.9001 53.7066 11.818C54.1498 11.7359 54.5766 11.7031 54.9705 11.7031C55.4301 11.7031 55.8732 11.7524 56.2836 11.8508C56.6939 11.9493 57.0878 12.097 57.4161 12.3268C57.7608 12.5402 58.0398 12.8357 58.2532 13.1803C58.483 13.525 58.6143 13.9518 58.68 14.4442L56.6283 14.4442C56.5298 13.9682 56.3164 13.6563 55.9881 13.4922C55.6434 13.3281 55.2659 13.246 54.8228 13.246C54.6914 13.246 54.5109 13.2624 54.3303 13.2788C54.1334 13.3116 53.9692 13.3445 53.7887 13.4101C53.6246 13.4758 53.4768 13.5743 53.3619 13.6892C53.247 13.8041 53.1814 13.9682 53.1814 14.1652C53.1814 14.4114 53.2635 14.5919 53.4276 14.7396C53.5917 14.8874 53.8051 15.0023 54.0841 15.1171C54.3468 15.2156 54.6586 15.2977 55.0033 15.3634C55.348 15.429 55.7091 15.5111 56.0702 15.5931C56.4313 15.6752 56.776 15.7737 57.1207 15.8886C57.4653 16.0035 57.7772 16.1512 58.0398 16.3646C58.3024 16.5615 58.5322 16.8078 58.6964 17.1032C58.8605 17.3986 58.9426 17.7761 58.9426 18.2029C58.9426 18.7281 58.8277 19.1713 58.5815 19.5488C58.3353 19.9099 58.0234 20.2218 57.6459 20.4516C57.2684 20.6814 56.8252 20.8455 56.3656 20.9604C55.8896 21.0589 55.4301 21.1245 54.9705 21.1245C54.4124 21.1245 53.8872 21.0589 53.4112 20.9276C52.9352 20.7963 52.5084 20.5993 52.1637 20.3531C51.8191 20.0905 51.54 19.7786 51.3431 19.3847C51.1461 19.0072 51.0312 18.5476 51.0148 18.0059L53.0008 18.0059L53.0008 18.0224L53.0173 18.0224ZM59.5006 11.9657L60.9943 11.9657L60.9943 9.2739L62.9639 9.2739L62.9639 11.9493L64.7366 11.9493L64.7366 13.4101L62.9639 13.4101L62.9639 18.1701C62.9639 18.3835 62.9803 18.5476 62.9967 18.7117C63.0131 18.8594 63.0624 18.9908 63.1116 19.0892C63.1773 19.1877 63.2758 19.2698 63.3907 19.319C63.522 19.3683 63.6861 19.4011 63.9159 19.4011C64.0472 19.4011 64.1949 19.4011 64.3262 19.3847C64.4576 19.3683 64.6053 19.3519 64.7366 19.319L64.7366 20.8455C64.5232 20.8783 64.3098 20.8947 64.0965 20.9112C63.8831 20.944 63.6861 20.944 63.4563 20.944C62.9311 20.944 62.5207 20.8947 62.2089 20.7963C61.897 20.6978 61.6508 20.5501 61.4703 20.3695C61.2897 20.1725 61.1748 19.9427 61.1092 19.6637C61.0435 19.3847 61.0107 19.04 60.9943 18.6789L60.9943 13.4265L59.5006 13.4265L59.5006 11.9329L59.5006 11.9657ZM66.1153 11.9657L67.9701 11.9657L67.9701 13.1803L68.0029 13.1803C68.2819 12.6551 68.6594 12.294 69.1518 12.0642C69.6442 11.8344 70.1695 11.7195 70.7604 11.7195C71.4662 11.7195 72.0735 11.8344 72.5987 12.097C73.1239 12.3432 73.5507 12.6715 73.8954 13.1147C74.2401 13.5414 74.5027 14.0503 74.6668 14.6247C74.8309 15.1992 74.9294 15.8229 74.9294 16.4631C74.9294 17.0704 74.8474 17.6448 74.6996 18.2029C74.5355 18.761 74.3057 19.2698 73.9939 19.6965C73.682 20.1233 73.2881 20.468 72.7957 20.7306C72.3033 20.9932 71.7452 21.1245 71.0887 21.1245C70.8096 21.1245 70.5142 21.0917 70.2351 21.0425C69.9561 20.9932 69.6771 20.9112 69.4145 20.7963C69.1518 20.6814 68.9056 20.5336 68.6923 20.3531C68.4625 20.1725 68.2819 19.9592 68.1342 19.7294L68.1014 19.7294L68.1014 24.1775L66.1317 24.1775L66.1317 11.9657L66.1153 11.9657ZM72.9926 16.4302C72.9926 16.0363 72.9434 15.6424 72.8285 15.2649C72.73 14.8874 72.5659 14.5591 72.3525 14.2636C72.1391 13.9682 71.8765 13.7384 71.5811 13.5579C71.2692 13.3773 70.9081 13.2952 70.5142 13.2952C69.6935 13.2952 69.0698 13.5743 68.643 14.1487C68.2327 14.7232 68.0193 15.4947 68.0193 16.4466C68.0193 16.9062 68.0685 17.3166 68.1834 17.6941C68.2983 18.0716 68.4461 18.3999 68.6758 18.6789C68.8892 18.9579 69.1518 19.1713 69.4637 19.3354C69.7756 19.4996 70.1202 19.5816 70.5306 19.5816C70.9902 19.5816 71.3513 19.4832 71.6631 19.3026C71.975 19.1221 72.2212 18.8759 72.4346 18.5968C72.6315 18.3014 72.7793 17.9731 72.8613 17.5956C72.9434 17.2017 72.9926 16.8242 72.9926 16.4302ZM76.4559 8.56812L78.4255 8.56812L78.4255 10.4229L76.4559 10.4229L76.4559 8.56812ZM76.4559 11.9657L78.4255 11.9657L78.4255 20.8783L76.4559 20.8783L76.4559 11.9657ZM80.1818 8.56812L82.1514 8.56812L82.1514 20.8783L80.1818 20.8783L80.1818 8.56812ZM88.1588 21.1245C87.453 21.1245 86.8129 21.0096 86.2548 20.7634C85.6968 20.5172 85.2372 20.2054 84.8433 19.795C84.4657 19.3847 84.1703 18.8759 83.9733 18.3014C83.7764 17.7269 83.6615 17.0868 83.6615 16.4138C83.6615 15.7409 83.76 15.1171 83.9733 14.5427C84.1703 13.9682 84.4657 13.4758 84.8433 13.049C85.2208 12.6387 85.6968 12.3104 86.2548 12.0806C86.8129 11.8508 87.453 11.7195 88.1588 11.7195C88.8646 11.7195 89.5047 11.8344 90.0628 12.0806C90.6208 12.3104 91.0804 12.6387 91.4744 13.049C91.8519 13.4594 92.1473 13.9682 92.3443 14.5427C92.5412 15.1171 92.6561 15.7409 92.6561 16.4138C92.6561 17.1032 92.5577 17.7269 92.3443 18.3014C92.1309 18.8759 91.8519 19.3683 91.4744 19.795C91.0968 20.2054 90.6208 20.5336 90.0628 20.7634C89.5047 20.9932 88.881 21.1245 88.1588 21.1245ZM88.1588 19.5652C88.5856 19.5652 88.9795 19.4668 89.2913 19.2862C89.6196 19.1057 89.8658 18.8595 90.0792 18.564C90.2926 18.2686 90.4403 17.9239 90.5388 17.5628C90.6373 17.1853 90.6865 16.8077 90.6865 16.4138C90.6865 16.0363 90.6373 15.6588 90.5388 15.2813C90.4403 14.9038 90.2926 14.5755 90.0792 14.2801C89.8658 13.9846 89.6032 13.7548 89.2913 13.5743C88.9631 13.3937 88.5856 13.2952 88.1588 13.2952C87.732 13.2952 87.3381 13.3937 87.0263 13.5743C86.698 13.7548 86.4518 14.001 86.2384 14.2801C86.025 14.5755 85.8773 14.9038 85.7788 15.2813C85.6803 15.6588 85.6311 16.0363 85.6311 16.4138C85.6311 16.8077 85.6803 17.1853 85.7788 17.5628C85.8773 17.9403 86.025 18.2686 86.2384 18.564C86.4518 18.8595 86.7144 19.1057 87.0263 19.2862C87.3545 19.4832 87.732 19.5652 88.1588 19.5652ZM93.247 11.9657L94.7407 11.9657L94.7407 9.2739L96.7103 9.2739L96.7103 11.9493L98.483 11.9493L98.483 13.4101L96.7103 13.4101L96.7103 18.1701C96.7103 18.3835 96.7267 18.5476 96.7431 18.7117C96.7595 18.8594 96.8088 18.9908 96.858 19.0892C96.9237 19.1877 97.0222 19.2698 97.1371 19.319C97.2684 19.3683 97.4325 19.4011 97.6623 19.4011C97.7936 19.4011 97.9413 19.4011 98.0726 19.3847C98.2039 19.3683 98.3517 19.3519 98.483 19.319L98.483 20.8455C98.2696 20.8783 98.0562 20.8947 97.8428 20.9112C97.6295 20.944 97.4325 20.944 97.2027 20.944C96.6775 20.944 96.2671 20.8947 95.9553 20.7963C95.6434 20.6978 95.3972 20.5501 95.2167 20.3695C95.0361 20.1725 94.9212 19.9427 94.8556 19.6637C94.7899 19.3847 94.7571 19.04 94.7407 18.6789L94.7407 13.4265L93.247 13.4265L93.247 11.9329L93.247 11.9657Z"
              fill="rgb(0,0,0)" fill-rule="nonzero"/>
        <path id="Vector"
              d="M23.5864 8.56791L14.5753 8.56791L11.8014 0L9.01107 8.56791L0 8.55149L7.28764 13.8531L4.49733 22.421L11.785 17.1194L19.0726 22.421L16.2987 13.8531L23.5864 8.56791Z"
              fill="rgb(0,182,122)" fill-rule="nonzero"/>
        <path id="Vector"
              d="M16.9238 15.7906L16.3001 13.8538L11.8027 17.1201L16.9238 15.7906Z"
              fill="rgb(0,81,40)" fill-rule="nonzero"/>
    </g>
</svg>
