<svg width="21" height="21" viewBox="0 0 21 21" fill="none" xmlns="http://www.w3.org/2000/svg">
<path d="M12.6927 16.8287C14.0482 17.5706 15.2403 16.6714 14.981 15.0977L14.5156 12.2722L16.4873 10.2711C17.584 9.1582 17.1309 7.69995 15.6133 7.47035L12.8884 7.05811L11.6758 4.50004C10.9965 3.06714 9.52172 3.05173 8.84121 4.48733L7.62258 7.05811L4.89766 7.47035C3.38217 7.69962 2.92543 9.15663 4.02359 10.2711L5.99537 12.2722L5.5299 15.0977C5.27102 16.6692 6.46082 17.5717 7.81822 16.8287L10.2555 15.4947L12.6927 16.8287Z" fill="#6C5FBC"/>
<mask id="mask0_1_5384" style="mask-type:luminance" maskUnits="userSpaceOnUse" x="3" y="3" width="15" height="15">
<path d="M12.6927 16.8287C14.0482 17.5706 15.2403 16.6714 14.981 15.0977L14.5156 12.2722L16.4873 10.2711C17.584 9.1582 17.1309 7.69995 15.6133 7.47035L12.8884 7.05811L11.6758 4.50004C10.9965 3.06714 9.52172 3.05173 8.84121 4.48733L7.62258 7.05811L4.89766 7.47035C3.38217 7.69962 2.92543 9.15663 4.02359 10.2711L5.99537 12.2722L5.5299 15.0977C5.27102 16.6692 6.46082 17.5717 7.81822 16.8287L10.2555 15.4947L12.6927 16.8287Z" fill="white"/>
</mask>
<g mask="url(#mask0_1_5384)">
</g>
</svg>
