<svg viewBox="0 0 76.6934 12.2363" xmlns="http://www.w3.org/2000/svg" xmlns:xlink="http://www.w3.org/1999/xlink" width="76.693359" height="12.236328" fill="none" customFrame="#000000">
	<g id="Star" opacity="0.800000012">
		<g id="Icon/Solid/star">
			<path id="Icon" d="M5.57115 0.593727C5.82837 -0.197909 6.94833 -0.197909 7.20554 0.593727L8.12457 3.4222C8.2396 3.77623 8.56952 4.01593 8.94177 4.01593L11.9158 4.01593C12.7482 4.01593 13.0943 5.08107 12.4209 5.57033L10.0148 7.31842C9.71365 7.53722 9.58764 7.92506 9.70267 8.27909L10.6217 11.1076C10.8789 11.8992 9.97285 12.5575 9.29945 12.0682L6.8934 10.3201C6.59225 10.1013 6.18445 10.1013 5.88329 10.3201L3.47725 12.0682C2.80384 12.5575 1.89778 11.8992 2.155 11.1076L3.07403 8.27909C3.18906 7.92506 3.06304 7.53722 2.76189 7.31842L0.355842 5.57033C-0.317563 5.08107 0.0285215 4.01593 0.860897 4.01593L3.83493 4.01593C4.20718 4.01593 4.53709 3.77623 4.65213 3.4222L5.57115 0.593727Z" fill="rgb(245,158,11)" fill-rule="nonzero" />
		</g>
		<g id="Icon/Solid/star">
			<path id="Icon" d="M21.5516 0.593727C21.8088 -0.197909 22.9288 -0.197909 23.186 0.593727L24.105 3.4222C24.2201 3.77623 24.55 4.01593 24.9222 4.01593L27.8963 4.01593C28.7286 4.01593 29.0747 5.08107 28.4013 5.57033L25.9953 7.31842C25.6941 7.53722 25.5681 7.92506 25.6831 8.27909L26.6022 11.1076C26.8594 11.8992 25.9533 12.5575 25.2799 12.0682L22.8739 10.3201C22.5727 10.1013 22.1649 10.1013 21.8638 10.3201L19.4577 12.0682C18.7843 12.5575 17.8783 11.8992 18.1355 11.1076L19.0545 8.27909C19.1695 7.92506 19.0435 7.53722 18.7424 7.31842L16.3363 5.57033C15.6629 5.08107 16.009 4.01593 16.8414 4.01593L19.8154 4.01593C20.1876 4.01593 20.5176 3.77623 20.6326 3.4222L21.5516 0.593727Z" fill="rgb(245,158,11)" fill-rule="nonzero" />
		</g>
		<g id="Icon/Solid/star">
			<path id="Icon" d="M37.5301 0.593727C37.7874 -0.197909 38.9073 -0.197909 39.1645 0.593727L40.0836 3.4222C40.1986 3.77623 40.5285 4.01593 40.9007 4.01593L43.8748 4.01593C44.7072 4.01593 45.0532 5.08107 44.3798 5.57033L41.9738 7.31842C41.6726 7.53722 41.5466 7.92506 41.6617 8.27909L42.5807 11.1076C42.8379 11.8992 41.9318 12.5575 41.2584 12.0682L38.8524 10.3201C38.5512 10.1013 38.1434 10.1013 37.8423 10.3201L35.4362 12.0682C34.7628 12.5575 33.8568 11.8992 34.114 11.1076L35.033 8.27909C35.148 7.92506 35.022 7.53722 34.7209 7.31842L32.3148 5.57033C31.6414 5.08107 31.9875 4.01593 32.8199 4.01593L35.7939 4.01593C36.1662 4.01593 36.4961 3.77623 36.6111 3.4222L37.5301 0.593727Z" fill="rgb(245,158,11)" fill-rule="nonzero" />
		</g>
		<g id="Icon/Solid/star">
			<path id="Icon" d="M53.5106 0.593727C53.7678 -0.197909 54.8878 -0.197909 55.145 0.593727L56.064 3.4222C56.1791 3.77623 56.509 4.01593 56.8812 4.01593L59.8553 4.01593C60.6876 4.01593 61.0337 5.08107 60.3603 5.57033L57.9543 7.31842C57.6531 7.53722 57.5271 7.92506 57.6421 8.27909L58.5611 11.1076C58.8184 11.8992 57.9123 12.5575 57.2389 12.0682L54.8329 10.3201C54.5317 10.1013 54.1239 10.1013 53.8227 10.3201L51.4167 12.0682C50.7433 12.5575 49.8372 11.8992 50.0945 11.1076L51.0135 8.27909C51.1285 7.92506 51.0025 7.53722 50.7013 7.31842L48.2953 5.57033C47.6219 5.08107 47.968 4.01593 48.8004 4.01593L51.7744 4.01593C52.1466 4.01593 52.4765 3.77623 52.5916 3.4222L53.5106 0.593727Z" fill="rgb(245,158,11)" fill-rule="nonzero" />
		</g>
		<g id="Icon/Solid/star">
			<path id="Icon" d="M69.4891 0.593727C69.7463 -0.197909 70.8663 -0.197909 71.1235 0.593727L72.0425 3.4222C72.1576 3.77623 72.4875 4.01593 72.8597 4.01593L75.8338 4.01593C76.6661 4.01593 77.0122 5.08107 76.3388 5.57033L73.9328 7.31842C73.6316 7.53722 73.5056 7.92506 73.6206 8.27909L74.5397 11.1076C74.7969 11.8992 73.8908 12.5575 73.2174 12.0682L70.8114 10.3201C70.5102 10.1013 70.1024 10.1013 69.8013 10.3201L67.3952 12.0682C66.7218 12.5575 65.8158 11.8992 66.073 11.1076L66.992 8.27909C67.107 7.92506 66.981 7.53722 66.6799 7.31842L64.2738 5.57033C63.6004 5.08107 63.9465 4.01593 64.7789 4.01593L67.7529 4.01593C68.1252 4.01593 68.4551 3.77623 68.5701 3.4222L69.4891 0.593727Z" fill="rgb(245,158,11)" fill-rule="nonzero" />
		</g>
	</g>
</svg>
