<svg width="73" height="90" viewBox="0 0 73 90" fill="none" xmlns="http://www.w3.org/2000/svg">
<path d="M42.8443 68.4731C40.4546 75.3145 35.4581 81.4811 27.9294 85.3874C9.22812 95.0906 1.17944 76.5421 1.32719 76.5377M42.8443 68.4731C45.4671 60.9643 44.9497 52.6427 41.1937 45.6043C38.1203 39.8451 26.7912 32.3478 21.6866 40.8103C17.1046 48.4063 21.681 58.6301 28.7332 63.6961C33.7329 67.2877 38.5158 68.7116 42.8443 68.4731ZM42.8443 68.4731C51.4132 68.0007 58.201 61.0128 61.3635 51.4292C66.637 35.4481 61.4204 19.8194 52.2848 6.14504M71.6426 10.0296C69.7182 10.4044 67.8323 10.0265 65.9287 9.73583C59.6781 8.78203 53.2871 5.96716 49.404 1.3252C51.6407 7.27864 52.3017 15.6824 47.5407 20.7238" stroke="#665AB5" stroke-width="2.65" stroke-miterlimit="1.5" stroke-linecap="round" stroke-linejoin="round"/>
</svg>
