<svg width="300" height="220" viewBox="0 0 300 220" fill="none"
     xmlns="http://www.w3.org/2000/svg">
    <g clip-path="url(#clip0_1_15849)">
        <rect width="1440" height="5838" transform="translate(-1 -876)"
              fill="#F9F9F9"/>
        <rect x="-1" width="1440" height="220.5" fill="#5C4EAE"/>
        <mask id="mask0_1_15849" style="mask-type:alpha"
              maskUnits="userSpaceOnUse" x="-1" y="0" width="1440" height="221">
            <rect x="-1" width="1440" height="220.5" fill="#201F1F"/>
        </mask>
        <g mask="url(#mask0_1_15849)">
            <path opacity="0.2"
                  d="M368.68 577.878C374.051 546.413 381.885 516.817 379.878 482.89C378.444 458.658 372.443 434.809 360.905 412.054C339.393 369.626 311.272 329.18 277.84 296.952C243.679 264.021 210.142 228.189 171.566 202.9C135.7 179.387 97.446 159.962 62.4785 134.41C3.88972 91.5978 -37.5779 23.2802 -72.7742 -42.2882C-91.3944 -76.9764 -109.862 -111.901 -127.689 -147.001C-138.875 -169.027 -148.273 -192.647 -162.028 -213.115"
                  stroke="#A596FF" stroke-width="4.01667"
                  stroke-linecap="round"/>
            <path opacity="0.2"
                  d="M412.34 566.6C418.134 532.606 426.589 500.633 424.415 463.977C422.861 437.797 416.374 412.03 403.907 387.442C380.662 341.6 350.28 297.896 314.163 263.07C277.258 227.484 241.027 188.764 199.355 161.433C160.61 136.023 119.288 115.028 81.5135 87.4146C18.2219 41.1481 -26.5823 -32.6707 -64.6122 -103.518C-84.7315 -140.999 -104.686 -178.735 -123.948 -216.66C-136.036 -240.46 -146.191 -265.98 -161.052 -288.097"
                  stroke="#A596FF" stroke-width="4.01667"
                  stroke-linecap="round"/>
        </g>
    </g>
    <defs>
        <clipPath id="clip0_1_15849">
            <rect width="1440" height="5838" fill="white"
                  transform="translate(-1 -876)"/>
        </clipPath>
    </defs>
</svg>
