<svg width="270" height="138" viewBox="0 0 270 138" fill="none"
     xmlns="http://www.w3.org/2000/svg">
    <g clip-path="url(#clip0_1_4570)">
        <rect width="375" height="6922" transform="translate(0 -908)"
              fill="#F9F9F9"/>
        <rect width="375" height="748" fill="#5C4EAE"/>
        <mask id="mask0_1_4570" style="mask-type:alpha"
              maskUnits="userSpaceOnUse" x="0" y="0" width="375" height="748">
            <rect width="375" height="748" fill="#201F1F"/>
        </mask>
        <g mask="url(#mask0_1_4570)">
            <path opacity="0.2"
                  d="M733.883 -169.034C704.525 -181.563 677.557 -196.055 644.09 -201.98C620.188 -206.212 595.598 -205.911 570.785 -199.972C524.522 -188.898 478.652 -170.936 439.543 -145.9C399.58 -120.318 356.941 -96.0168 323.387 -64.3662C292.19 -34.939 264.414 -2.24062 231.442 25.839C176.197 72.887 100.118 97.36 28.1698 116.371C-9.89362 126.429 -48.1515 136.284 -86.431 145.474C-110.453 151.241 -135.609 154.898 -158.711 163.525"
                  stroke="#A596FF" stroke-width="4.01667"
                  stroke-linecap="round"/>
            <path opacity="0.2"
                  d="M733.05 -214.12C701.33 -227.648 672.193 -243.296 636.035 -249.691C610.209 -254.258 583.64 -253.931 556.83 -247.513C506.843 -235.547 457.279 -216.141 415.02 -189.097C371.837 -161.462 325.764 -135.211 289.505 -101.023C255.794 -69.2369 225.778 -33.918 190.149 -3.58695C130.453 47.2333 48.2487 73.6745 -29.4921 94.2165C-70.62 105.084 -111.958 115.732 -153.319 125.662C-179.274 131.894 -206.456 135.847 -231.418 145.167"
                  stroke="#A596FF" stroke-width="4.01667"
                  stroke-linecap="round"/>
        </g>
    </g>
    <defs>
        <clipPath id="clip0_1_4570">
            <rect width="375" height="6922" fill="white"
                  transform="translate(0 -908)"/>
        </clipPath>
    </defs>
</svg>
