<svg width="210" height="157" viewBox="0 0 210 157" fill="none" xmlns="http://www.w3.org/2000/svg">
<rect y="-0.0664062" width="1024" height="156.8" fill="#5C4EAE"/>
<mask id="mask0_1_11127" style="mask-type:alpha" maskUnits="userSpaceOnUse" x="0" y="-1" width="1024" height="158">
<rect y="-0.0664062" width="1024" height="156.8" fill="#201F1F"/>
</mask>
<g mask="url(#mask0_1_11127)">
<path opacity="0.2" d="M262.883 410.866C266.702 388.49 272.273 367.444 270.846 343.318C269.827 326.087 265.559 309.128 257.354 292.946C242.057 262.775 222.059 234.014 198.286 211.096C173.993 187.678 150.145 162.197 122.713 144.214C97.2083 127.494 70.0056 113.681 45.1398 95.5106C3.47669 65.0663 -26.0114 16.4849 -51.0398 -30.1415C-64.2809 -54.8087 -77.4134 -79.6439 -90.0901 -104.604C-98.045 -120.267 -104.728 -137.063 -114.509 -151.618" stroke="#A596FF" stroke-width="2.8563" stroke-linecap="round"/>
<path opacity="0.2" d="M293.931 402.849C298.051 378.676 304.064 355.939 302.518 329.873C301.413 311.256 296.8 292.933 287.935 275.448C271.405 242.849 249.8 211.771 224.117 187.006C197.873 161.7 172.109 134.166 142.475 114.731C114.924 96.6613 85.5386 81.7313 58.6769 62.0952C13.6696 29.1946 -18.1912 -23.2988 -45.2347 -73.679C-59.5417 -100.332 -73.7317 -127.167 -87.4291 -154.136C-96.0247 -171.06 -103.246 -189.208 -113.814 -204.935" stroke="#A596FF" stroke-width="2.8563" stroke-linecap="round"/>
</g>
</svg>
